OctagonVariable-HROT30VROT-30.ufo
<glyph name="comma" format="2">
  <advance width="195.0"/>
  <unicode hex="002C"/>
  <outline>
    <contour>
      <point x="15.0" y="104.0" type="line"/>
      <point x="180.0" y="104.0" type="line"/>
      <point x="180.0" y="122.0" type="line"/>
      <point x="15.0" y="122.0" type="line"/>
    </contour>
    <contour>
      <point x="29.0" y="104.0" type="line"/>
      <point x="150.0" y="130.0" type="line"/>
      <point x="141.0" y="150.0" type="line"/>
      <point x="15.0" y="118.0" type="line"/>
    </contour>
    <contour>
      <point x="166.0" y="104.0" type="line"/>
      <point x="180.0" y="118.0" type="line"/>
      <point x="153.0" y="151.0" type="line"/>
      <point x="144.0" y="131.0" type="line"/>
    </contour>
    <contour>
      <point x="15.0" y="104.0" type="line"/>
      <point x="35.0" y="104.0" type="line"/>
      <point x="35.0" y="269.0" type="line"/>
      <point x="15.0" y="269.0" type="line"/>
    </contour>
    <contour>
      <point x="141.0" y="135.0" type="line"/>
      <point x="154.0" y="135.0" type="line"/>
      <point x="154.0" y="152.0" type="line"/>
      <point x="141.0" y="152.0" type="line"/>
    </contour>
    <contour>
      <point x="160.0" y="104.0" type="line"/>
      <point x="180.0" y="104.0" type="line"/>
      <point x="180.0" y="269.0" type="line"/>
      <point x="160.0" y="269.0" type="line"/>
    </contour>
    <contour>
      <point x="142.0" y="137.0" type="line"/>
      <point x="151.0" y="157.0" type="line"/>
      <point x="29.0" y="269.0" type="line"/>
      <point x="15.0" y="255.0" type="line"/>
    </contour>
    <contour>
      <point x="18.0" y="251.0" type="line"/>
      <point x="180.0" y="251.0" type="line"/>
      <point x="180.0" y="269.0" type="line"/>
      <point x="18.0" y="269.0" type="line"/>
    </contour>
    <contour>
      <point x="153.0" y="137.0" type="line"/>
      <point x="179.0" y="255.0" type="line"/>
      <point x="165.0" y="269.0" type="line"/>
      <point x="144.0" y="157.0" type="line"/>
    </contour>
    <contour>
      <point x="15.0" y="-23.0" type="line"/>
      <point x="35.0" y="-23.0" type="line"/>
      <point x="35.0" y="57.0" type="line"/>
      <point x="15.0" y="60.0" type="line"/>
    </contour>
    <contour>
      <point x="28.0" y="45.0" type="line"/>
      <point x="94.0" y="104.0" type="line"/>
      <point x="77.0" y="118.0" type="line"/>
      <point x="15.0" y="60.0" type="line"/>
    </contour>
    <contour>
      <point x="30.0" y="-35.0" type="line"/>
      <point x="180.0" y="104.0" type="line"/>
      <point x="167.0" y="119.0" type="line"/>
      <point x="15.0" y="-22.0" type="line"/>
      <point x="15.0" y="-35.0" type="line"/>
    </contour>
  </outline>
</glyph>
<glyph name="period" format="2">
  <advance width="224.0"/>
  <unicode hex="002E"/>
  <outline>
    <contour>
      <point x="15.0" y="50.0" type="line"/>
      <point x="209.0" y="50.0" type="line"/>
      <point x="209.0" y="69.0" type="line"/>
      <point x="15.0" y="69.0" type="line"/>
    </contour>
    <contour>
      <point x="30.0" y="50.0" type="line"/>
      <point x="176.0" y="85.0" type="line"/>
      <point x="164.0" y="103.0" type="line"/>
      <point x="15.0" y="65.0" type="line"/>
    </contour>
    <contour>
      <point x="194.0" y="50.0" type="line"/>
      <point x="209.0" y="65.0" type="line"/>
      <point x="179.0" y="104.0" type="line"/>
      <point x="167.0" y="86.0" type="line"/>
    </contour>
    <contour>
      <point x="15.0" y="50.0" type="line"/>
      <point x="34.0" y="50.0" type="line"/>
      <point x="34.0" y="254.0" type="line"/>
      <point x="15.0" y="254.0" type="line"/>
    </contour>
    <contour>
      <point x="164.0" y="88.0" type="line"/>
      <point x="180.0" y="88.0" type="line"/>
      <point x="180.0" y="104.0" type="line"/>
      <point x="164.0" y="104.0" type="line"/>
    </contour>
    <contour>
      <point x="190.0" y="50.0" type="line"/>
      <point x="209.0" y="50.0" type="line"/>
      <point x="209.0" y="254.0" type="line"/>
      <point x="190.0" y="254.0" type="line"/>
    </contour>
    <contour>
      <point x="165.0" y="89.0" type="line"/>
      <point x="177.0" y="107.0" type="line"/>
      <point x="30.0" y="254.0" type="line"/>
      <point x="15.0" y="239.0" type="line"/>
    </contour>
    <contour>
      <point x="19.0" y="235.0" type="line"/>
      <point x="209.0" y="235.0" type="line"/>
      <point x="209.0" y="254.0" type="line"/>
      <point x="19.0" y="254.0" type="line"/>
    </contour>
    <contour>
      <point x="179.0" y="89.0" type="line"/>
      <point x="208.0" y="239.0" type="line"/>
      <point x="193.0" y="254.0" type="line"/>
      <point x="167.0" y="107.0" type="line"/>
    </contour>
  </outline>
</glyph>
<glyph name="four" format="2">
  <advance width="455.0"/>
  <unicode hex="0034"/>
  <outline>
    <contour>
      <point x="312.0" y="530.0" type="line"/>
      <point x="100.0" y="530.0" type="line"/>
    </contour>
    <contour>
      <point x="228.0" y="384.0" type="line"/>
      <point x="121.0" y="539.0" type="line"/>
      <point x="102.0" y="532.0" type="line"/>
      <point x="209.0" y="377.0" type="line"/>
    </contour>
    <contour>
      <point x="292.0" y="547.0" type="line"/>
      <point x="209.0" y="382.0" type="line"/>
      <point x="225.0" y="372.0" type="line"/>
      <point x="306.0" y="535.0" type="line"/>
    </contour>
    <contour>
      <point x="300.0" y="550.0" type="line"/>
      <point x="164.0" y="317.0" type="line"/>
      <point x="183.0" y="316.0" type="line"/>
      <point x="322.0" y="550.0" type="line"/>
    </contour>
    <contour>
      <point x="245.0" y="169.0" type="line"/>
      <point x="15.0" y="169.0" type="line"/>
      <point x="15.0" y="149.0" type="line"/>
      <point x="225.0" y="149.0" type="line"/>
    </contour>
    <contour>
      <point x="317.0" y="550.0" type="line"/>
      <point x="100.0" y="550.0" type="line"/>
      <point x="100.0" y="530.0" type="line"/>
      <point x="310.0" y="530.0" type="line"/>
    </contour>
    <contour>
      <point x="100.0" y="550.0" type="line"/>
      <point x="10.0" y="384.0" type="line"/>
      <point x="28.0" y="376.0" type="line"/>
      <point x="118.0" y="542.0" type="line"/>
    </contour>
    <contour>
      <point x="425.0" y="324.0" type="line"/>
      <point x="425.0" y="160.0" type="line"/>
      <point x="445.0" y="160.0" type="line"/>
      <point x="445.0" y="324.0" type="line"/>
    </contour>
    <contour>
      <point x="220.0" y="324.0" type="line"/>
      <point x="171.0" y="324.0" type="line"/>
      <point x="166.0" y="307.0" type="line"/>
      <point x="220.0" y="307.0" type="line"/>
    </contour>
    <contour>
      <point x="210.0" y="384.0" type="line"/>
      <point x="103.0" y="193.0" type="line"/>
      <point x="120.0" y="188.0" type="line"/>
      <point x="231.0" y="384.0" type="line"/>
    </contour>
    <contour>
      <point x="10.0" y="384.0" type="line"/>
      <point x="10.0" y="149.0" type="line"/>
      <point x="30.0" y="149.0" type="line"/>
      <point x="30.0" y="384.0" type="line"/>
    </contour>
    <contour>
      <point x="103.0" y="189.0" type="line"/>
      <point x="17.0" y="170.0" type="line"/>
      <point x="31.0" y="157.0" type="line"/>
      <point x="118.0" y="178.0" type="line"/>
    </contour>
    <contour>
      <point x="209.0" y="50.0" type="line"/>
      <point x="389.0" y="50.0" type="line"/>
      <point x="389.0" y="70.0" type="line"/>
      <point x="209.0" y="70.0" type="line"/>
    </contour>
    <contour>
      <point x="222.0" y="50.0" type="line"/>
      <point x="354.0" y="82.0" type="line"/>
      <point x="341.0" y="95.0" type="line"/>
      <point x="209.0" y="63.0" type="line"/>
    </contour>
    <contour>
      <point x="376.0" y="50.0" type="line"/>
      <point x="389.0" y="63.0" type="line"/>
      <point x="357.0" y="95.0" type="line"/>
      <point x="344.0" y="82.0" type="line"/>
    </contour>
    <contour>
      <point x="209.0" y="315.0" type="line"/>
      <point x="229.0" y="315.0" type="line"/>
      <point x="229.0" y="393.0" type="line"/>
      <point x="209.0" y="393.0" type="line"/>
    </contour>
    <contour>
      <point x="339.0" y="80.0" type="line"/>
      <point x="359.0" y="80.0" type="line"/>
      <point x="359.0" y="314.0" type="line"/>
      <point x="339.0" y="314.0" type="line"/>
    </contour>
    <contour>
      <point x="341.0" y="300.0" type="line"/>
      <point x="354.0" y="315.0" type="line"/>
      <point x="227.0" y="383.0" type="line"/>
      <point x="214.0" y="370.0" type="line"/>
    </contour>
    <contour>
      <point x="214.0" y="373.0" type="line"/>
      <point x="389.0" y="373.0" type="line"/>
      <point x="389.0" y="393.0" type="line"/>
      <point x="214.0" y="393.0" type="line"/>
    </contour>
    <contour>
      <point x="356.0" y="300.0" type="line"/>
      <point x="389.0" y="370.0" type="line"/>
      <point x="376.0" y="383.0" type="line"/>
      <point x="343.0" y="315.0" type="line"/>
    </contour>
    <contour>
      <point x="222.0" y="327.0" type="line"/>
      <point x="204.0" y="313.0" type="line"/>
      <point x="337.0" y="183.0" type="line"/>
      <point x="353.0" y="198.0" type="line"/>
    </contour>
    <contour>
      <point x="336.0" y="189.0" type="line"/>
      <point x="210.0" y="162.0" type="line"/>
      <point x="227.0" y="147.0" type="line"/>
      <point x="352.0" y="176.0" type="line"/>
    </contour>
    <contour>
      <point x="165.0" y="319.0" type="line"/>
      <point x="101.0" y="190.0" type="line"/>
      <point x="116.0" y="177.0" type="line"/>
      <point x="181.0" y="311.0" type="line"/>
    </contour>
    <contour>
      <point x="391.0" y="310.0" type="line"/>
      <point x="391.0" y="393.0" type="line"/>
      <point x="371.0" y="393.0" type="line"/>
      <point x="371.0" y="300.0" type="line"/>
    </contour>
    <contour>
      <point x="376.0" y="328.0" type="line"/>
      <point x="345.0" y="193.0" type="line"/>
      <point x="359.0" y="181.0" type="line"/>
      <point x="391.0" y="314.0" type="line"/>
    </contour>
    <contour>
      <point x="362.0" y="190.0" type="line"/>
      <point x="344.0" y="177.0" type="line"/>
      <point x="374.0" y="149.0" type="line"/>
      <point x="393.0" y="164.0" type="line"/>
    </contour>
    <contour>
      <point x="445.0" y="169.0" type="line"/>
      <point x="366.0" y="169.0" type="line"/>
      <point x="376.0" y="149.0" type="line"/>
      <point x="445.0" y="149.0" type="line"/>
    </contour>
    <contour>
      <point x="441.0" y="324.0" type="line"/>
      <point x="380.0" y="324.0" type="line"/>
      <point x="380.0" y="307.0" type="line"/>
      <point x="441.0" y="307.0" type="line"/>
    </contour>
    <contour>
      <point x="209.0" y="60.0" type="line"/>
      <point x="229.0" y="60.0" type="line"/>
      <point x="229.0" y="160.0" type="line"/>
      <point x="209.0" y="160.0" type="line"/>
    </contour>
    <contour>
      <point x="391.0" y="50.0" type="line"/>
      <point x="392.0" y="160.0" type="line"/>
      <point x="371.0" y="170.0" type="line"/>
      <point x="371.0" y="50.0" type="line"/>
    </contour>
    <contour>
      <point x="423.0" y="320.0" type="line"/>
      <point x="395.0" y="193.0" type="line"/>
      <point x="408.0" y="180.0" type="line"/>
      <point x="438.0" y="309.0" type="line"/>
    </contour>
    <contour>
      <point x="409.0" y="192.0" type="line"/>
      <point x="394.0" y="181.0" type="line"/>
      <point x="425.0" y="156.0" type="line"/>
      <point x="438.0" y="168.0" type="line"/>
    </contour>
    <contour>
      <point x="110.0" y="177.0" type="line"/>
      <point x="409.0" y="177.0" type="line"/>
      <point x="409.0" y="197.0" type="line"/>
      <point x="110.0" y="197.0" type="line"/>
    </contour>
    <contour>
      <point x="104.0" y="177.0" type="line"/>
      <point x="119.0" y="188.0" type="line"/>
      <point x="27.0" y="399.0" type="line"/>
      <point x="20.0" y="377.0" type="line"/>
    </contour>
  </outline>
</glyph>
<glyph name="five" format="2">
  <advance width="461.0"/>
  <unicode hex="0035"/>
  <outline>
    <contour>
      <point x="416.0" y="530.0" type="line"/>
      <point x="416.0" y="550.0" type="line"/>
      <point x="66.0" y="550.0" type="line"/>
      <point x="66.0" y="530.0" type="line"/>
    </contour>
    <contour>
      <point x="396.0" y="394.0" type="line"/>
      <point x="416.0" y="394.0" type="line"/>
      <point x="416.0" y="539.0" type="line"/>
      <point x="396.0" y="539.0" type="line"/>
    </contour>
    <contour>
      <point x="411.0" y="394.0" type="line"/>
      <point x="411.0" y="414.0" type="line"/>
      <point x="198.0" y="414.0" type="line"/>
      <point x="198.0" y="394.0" type="line"/>
    </contour>
    <contour>
      <point x="194.0" y="400.0" type="line"/>
      <point x="209.0" y="413.0" type="line"/>
      <point x="179.0" y="443.0" type="line"/>
      <point x="165.0" y="429.0" type="line"/>
    </contour>
    <contour>
      <point x="377.0" y="429.0" type="line"/>
      <point x="377.0" y="449.0" type="line"/>
      <point x="167.0" y="449.0" type="line"/>
      <point x="167.0" y="429.0" type="line"/>
    </contour>
    <contour>
      <point x="398.0" y="400.0" type="line"/>
      <point x="411.0" y="414.0" type="line"/>
      <point x="371.0" y="448.0" type="line"/>
      <point x="358.0" y="432.0" type="line"/>
    </contour>
    <contour>
      <point x="165.0" y="431.0" type="line"/>
      <point x="179.0" y="443.0" type="line"/>
      <point x="84.0" y="540.0" type="line"/>
      <point x="70.0" y="528.0" type="line"/>
    </contour>
    <contour>
      <point x="371.0" y="430.0" type="line"/>
      <point x="407.0" y="530.0" type="line"/>
      <point x="395.0" y="542.0" type="line"/>
      <point x="358.0" y="443.0" type="line"/>
    </contour>
    <contour>
      <point x="18.0" y="248.0" type="line"/>
      <point x="38.0" y="248.0" type="line"/>
      <point x="81.0" y="550.0" type="line"/>
      <point x="61.0" y="550.0" type="line"/>
    </contour>
    <contour>
      <point x="451.0" y="301.0" type="line"/>
      <point x="431.0" y="300.0" type="line"/>
      <point x="431.0" y="134.0" type="line"/>
      <point x="451.0" y="134.0" type="line"/>
    </contour>
    <contour>
      <point x="395.0" y="250.0" type="line"/>
      <point x="375.0" y="250.0" type="line"/>
      <point x="375.0" y="124.0" type="line"/>
      <point x="395.0" y="124.0" type="line"/>
    </contour>
    <contour>
      <point x="255.0" y="218.0" type="line"/>
      <point x="246.0" y="202.0" type="line"/>
      <point x="378.0" y="122.0" type="line"/>
      <point x="387.0" y="138.0" type="line"/>
    </contour>
    <contour>
      <point x="440.0" y="150.0" type="line"/>
      <point x="323.0" y="55.0" type="line"/>
      <point x="335.0" y="39.0" type="line"/>
      <point x="451.0" y="134.0" type="line"/>
    </contour>
    <contour>
      <point x="263.0" y="242.0" type="line"/>
      <point x="243.0" y="242.0" type="line"/>
      <point x="243.0" y="204.0" type="line"/>
      <point x="263.0" y="204.0" type="line"/>
    </contour>
    <contour>
      <point x="384.0" y="139.0" type="line"/>
      <point x="294.0" y="89.0" type="line"/>
      <point x="305.0" y="74.0" type="line"/>
      <point x="395.0" y="124.0" type="line"/>
    </contour>
    <contour>
      <point x="250.0" y="220.0" type="line"/>
      <point x="223.0" y="198.0" type="line"/>
      <point x="235.0" y="182.0" type="line"/>
      <point x="263.0" y="204.0" type="line"/>
    </contour>
    <contour>
      <point x="235.0" y="203.0" type="line"/>
      <point x="215.0" y="203.0" type="line"/>
      <point x="215.0" y="182.0" type="line"/>
      <point x="235.0" y="182.0" type="line"/>
    </contour>
    <contour>
      <point x="204.0" y="213.0" type="line"/>
      <point x="184.0" y="213.0" type="line"/>
      <point x="184.0" y="205.0" type="line"/>
      <point x="204.0" y="205.0" type="line"/>
    </contour>
    <contour>
      <point x="195.0" y="220.0" type="line"/>
      <point x="183.0" y="205.0" type="line"/>
      <point x="215.0" y="182.0" type="line"/>
      <point x="226.0" y="197.0" type="line"/>
    </contour>
    <contour>
      <point x="230.0" y="196.0" type="line"/>
      <point x="212.0" y="202.0" type="line"/>
      <point x="190.0" y="87.0" type="line"/>
      <point x="210.0" y="87.0" type="line"/>
    </contour>
    <contour>
      <point x="305.0" y="94.0" type="line"/>
      <point x="200.0" y="94.0" type="line"/>
      <point x="200.0" y="74.0" type="line"/>
      <point x="305.0" y="74.0" type="line"/>
    </contour>
    <contour>
      <point x="204.0" y="228.0" type="line"/>
      <point x="10.0" y="228.0" type="line"/>
      <point x="10.0" y="208.0" type="line"/>
      <point x="204.0" y="208.0" type="line"/>
    </contour>
    <contour>
      <point x="136.0" y="147.0" type="line"/>
      <point x="125.0" y="132.0" type="line"/>
      <point x="198.0" y="75.0" type="line"/>
      <point x="210.0" y="91.0" type="line"/>
    </contour>
    <contour>
      <point x="335.0" y="59.0" type="line"/>
      <point x="129.0" y="59.0" type="line"/>
      <point x="129.0" y="39.0" type="line"/>
      <point x="335.0" y="39.0" type="line"/>
    </contour>
    <contour>
      <point x="147.0" y="126.0" type="line"/>
      <point x="137.0" y="146.0" type="line"/>
      <point x="19.0" y="164.0" type="line"/>
      <point x="26.0" y="144.0" type="line"/>
    </contour>
    <contour>
      <point x="197.0" y="89.0" type="line"/>
      <point x="123.0" y="50.0" type="line"/>
      <point x="141.0" y="44.0" type="line"/>
      <point x="216.0" y="83.0" type="line"/>
    </contour>
    <contour>
      <point x="30.0" y="218.0" type="line"/>
      <point x="10.0" y="218.0" type="line"/>
      <point x="10.0" y="153.0" type="line"/>
      <point x="30.0" y="153.0" type="line"/>
    </contour>
    <contour>
      <point x="23.0" y="168.0" type="line"/>
      <point x="10.0" y="153.0" type="line"/>
      <point x="129.0" y="39.0" type="line"/>
      <point x="142.0" y="54.0" type="line"/>
    </contour>
    <contour>
      <point x="137.0" y="146.0" type="line"/>
      <point x="145.0" y="130.0" type="line"/>
      <point x="197.0" y="203.0" type="line"/>
      <point x="190.0" y="219.0" type="line"/>
    </contour>
    <contour>
      <point x="386.0" y="139.0" type="line"/>
      <point x="383.0" y="120.0" type="line"/>
      <point x="438.0" y="131.0" type="line"/>
      <point x="442.0" y="150.0" type="line"/>
    </contour>
    <contour>
      <point x="237.0" y="198.0" type="line"/>
      <point x="220.0" y="192.0" type="line"/>
      <point x="293.0" y="79.0" type="line"/>
      <point x="310.0" y="85.0" type="line"/>
    </contour>
    <contour>
      <point x="301.0" y="90.0" type="line"/>
      <point x="286.0" y="78.0" type="line"/>
      <point x="325.0" y="48.0" type="line"/>
      <point x="340.0" y="60.0" type="line"/>
    </contour>
    <contour>
      <point x="142.0" y="297.0" type="line"/>
      <point x="162.0" y="297.0" type="line"/>
      <point x="180.0" y="449.0" type="line"/>
      <point x="160.0" y="449.0" type="line"/>
    </contour>
    <contour>
      <point x="189.0" y="379.0" type="line"/>
      <point x="209.0" y="379.0" type="line"/>
      <point x="209.0" y="414.0" type="line"/>
      <point x="189.0" y="414.0" type="line"/>
    </contour>
    <contour>
      <point x="150.0" y="314.0" type="line"/>
      <point x="28.0" y="263.0" type="line"/>
      <point x="41.0" y="251.0" type="line"/>
      <point x="163.0" y="302.0" type="line"/>
    </contour>
    <contour>
      <point x="161.0" y="310.0" type="line"/>
      <point x="150.0" y="297.0" type="line"/>
      <point x="225.0" y="253.0" type="line"/>
      <point x="235.0" y="266.0" type="line"/>
    </contour>
    <contour>
      <point x="233.0" y="248.0" type="line"/>
      <point x="233.0" y="266.0" type="line"/>
      <point x="24.0" y="266.0" type="line"/>
      <point x="24.0" y="248.0" type="line"/>
    </contour>
    <contour>
      <point x="255.0" y="226.0" type="line"/>
      <point x="389.0" y="235.0" type="line"/>
      <point x="381.0" y="252.0" type="line"/>
      <point x="247.0" y="243.0" type="line"/>
    </contour>
    <contour>
      <point x="250.0" y="229.0" type="line"/>
      <point x="263.0" y="242.0" type="line"/>
      <point x="233.0" y="266.0" type="line"/>
      <point x="220.0" y="253.0" type="line"/>
    </contour>
    <contour>
      <point x="327.0" y="373.0" type="line"/>
      <point x="327.0" y="393.0" type="line"/>
      <point x="189.0" y="393.0" type="line"/>
      <point x="189.0" y="373.0" type="line"/>
    </contour>
    <contour>
      <point x="440.0" y="285.0" type="line"/>
      <point x="451.0" y="301.0" type="line"/>
      <point x="327.0" y="393.0" type="line"/>
      <point x="315.0" y="377.0" type="line"/>
    </contour>
    <contour>
      <point x="233.0" y="248.0" type="line"/>
      <point x="321.0" y="302.0" type="line"/>
      <point x="306.0" y="310.0" type="line"/>
      <point x="216.0" y="255.0" type="line"/>
    </contour>
    <contour>
      <point x="382.0" y="235.0" type="line"/>
      <point x="395.0" y="250.0" type="line"/>
      <point x="317.0" y="317.0" type="line"/>
      <point x="304.0" y="301.0" type="line"/>
    </contour>
    <contour>
      <point x="387.0" y="234.0" type="line"/>
      <point x="438.0" y="285.0" type="line"/>
      <point x="435.0" y="304.0" type="line"/>
      <point x="383.0" y="253.0" type="line"/>
    </contour>
    <contour>
      <point x="314.0" y="317.0" type="line"/>
      <point x="150.0" y="317.0" type="line"/>
      <point x="150.0" y="297.0" type="line"/>
      <point x="314.0" y="297.0" type="line"/>
    </contour>
    <contour>
      <point x="192.0" y="389.0" type="line"/>
      <point x="154.0" y="320.0" type="line"/>
      <point x="164.0" y="306.0" type="line"/>
      <point x="202.0" y="375.0" type="line"/>
    </contour>
    <contour>
      <point x="322.0" y="389.0" type="line"/>
      <point x="304.0" y="312.0" type="line"/>
      <point x="319.0" y="301.0" type="line"/>
      <point x="337.0" y="379.0" type="line"/>
    </contour>
  </outline>
</glyph>
<glyph name="nine" format="2">
  <advance width="471.0"/>
  <unicode hex="0039"/>
  <outline>
    <contour>
      <point x="446.0" y="306.0" type="line"/>
      <point x="270.0" y="49.0" type="line"/>
      <point x="290.0" y="49.0" type="line"/>
      <point x="461.0" y="297.0" type="line"/>
    </contour>
    <contour>
      <point x="352.0" y="550.0" type="line"/>
      <point x="339.0" y="535.0" type="line"/>
      <point x="446.0" y="413.0" type="line"/>
      <point x="461.0" y="426.0" type="line"/>
    </contour>
    <contour>
      <point x="342.0" y="545.0" type="line"/>
      <point x="342.0" y="428.0" type="line"/>
      <point x="358.0" y="419.0" type="line"/>
      <point x="358.0" y="537.0" type="line"/>
    </contour>
    <contour>
      <point x="445.0" y="431.0" type="line"/>
      <point x="404.0" y="367.0" type="line"/>
      <point x="411.0" y="349.0" type="line"/>
      <point x="450.0" y="414.0" type="line"/>
    </contour>
    <contour>
      <point x="461.0" y="426.0" type="line"/>
      <point x="441.0" y="426.0" type="line"/>
      <point x="441.0" y="291.0" type="line"/>
      <point x="461.0" y="297.0" type="line"/>
    </contour>
    <contour>
      <point x="355.0" y="434.0" type="line"/>
      <point x="343.0" y="418.0" type="line"/>
      <point x="408.0" y="349.0" type="line"/>
      <point x="422.0" y="363.0" type="line"/>
    </contour>
    <contour>
      <point x="352.0" y="550.0" type="line"/>
      <point x="126.0" y="550.0" type="line"/>
      <point x="126.0" y="530.0" type="line"/>
      <point x="352.0" y="530.0" type="line"/>
    </contour>
    <contour>
      <point x="410.0" y="368.0" type="line"/>
      <point x="264.0" y="376.0" type="line"/>
      <point x="271.0" y="360.0" type="line"/>
      <point x="415.0" y="350.0" type="line"/>
    </contour>
    <contour>
      <point x="339.0" y="427.0" type="line"/>
      <point x="240.0" y="397.0" type="line"/>
      <point x="256.0" y="387.0" type="line"/>
      <point x="356.0" y="416.0" type="line"/>
    </contour>
    <contour>
      <point x="422.0" y="363.0" type="line"/>
      <point x="402.0" y="363.0" type="line"/>
      <point x="402.0" y="284.0" type="line"/>
      <point x="422.0" y="284.0" type="line"/>
    </contour>
    <contour>
      <point x="355.0" y="434.0" type="line"/>
      <point x="220.0" y="434.0" type="line"/>
      <point x="220.0" y="414.0" type="line"/>
      <point x="355.0" y="414.0" type="line"/>
    </contour>
    <contour>
      <point x="413.0" y="299.0" type="line"/>
      <point x="408.0" y="280.0" type="line"/>
      <point x="450.0" y="290.0" type="line"/>
      <point x="454.0" y="308.0" type="line"/>
    </contour>
    <contour>
      <point x="257.0" y="402.0" type="line"/>
      <point x="244.0" y="387.0" type="line"/>
      <point x="264.0" y="360.0" type="line"/>
      <point x="277.0" y="374.0" type="line"/>
    </contour>
    <contour>
      <point x="138.0" y="543.0" type="line"/>
      <point x="120.0" y="535.0" type="line"/>
      <point x="219.0" y="418.0" type="line"/>
      <point x="236.0" y="426.0" type="line"/>
    </contour>
    <contour>
      <point x="257.0" y="402.0" type="line"/>
      <point x="227.0" y="402.0" type="line"/>
      <point x="227.0" y="381.0" type="line"/>
      <point x="257.0" y="381.0" type="line"/>
    </contour>
    <contour>
      <point x="277.0" y="374.0" type="line"/>
      <point x="257.0" y="374.0" type="line"/>
      <point x="257.0" y="338.0" type="line"/>
      <point x="277.0" y="338.0" type="line"/>
    </contour>
    <contour>
      <point x="232.0" y="427.0" type="line"/>
      <point x="214.0" y="417.0" type="line"/>
      <point x="229.0" y="387.0" type="line"/>
      <point x="246.0" y="397.0" type="line"/>
    </contour>
    <contour>
      <point x="269.0" y="353.0" type="line"/>
      <point x="260.0" y="336.0" type="line"/>
      <point x="403.0" y="283.0" type="line"/>
      <point x="413.0" y="299.0" type="line"/>
    </contour>
    <contour>
      <point x="227.0" y="402.0" type="line"/>
      <point x="208.0" y="374.0" type="line"/>
      <point x="225.0" y="364.0" type="line"/>
      <point x="242.0" y="389.0" type="line"/>
    </contour>
    <contour>
      <point x="411.0" y="298.0" type="line"/>
      <point x="328.0" y="224.0" type="line"/>
      <point x="338.0" y="210.0" type="line"/>
      <point x="422.0" y="284.0" type="line"/>
    </contour>
    <contour>
      <point x="220.0" y="434.0" type="line"/>
      <point x="166.0" y="385.0" type="line"/>
      <point x="179.0" y="373.0" type="line"/>
      <point x="233.0" y="421.0" type="line"/>
    </contour>
    <contour>
      <point x="261.0" y="351.0" type="line"/>
      <point x="246.0" y="324.0" type="line"/>
      <point x="258.0" y="309.0" type="line"/>
      <point x="277.0" y="338.0" type="line"/>
    </contour>
    <contour>
      <point x="181.0" y="393.0" type="line"/>
      <point x="173.0" y="375.0" type="line"/>
      <point x="214.0" y="361.0" type="line"/>
      <point x="222.0" y="378.0" type="line"/>
    </contour>
    <contour>
      <point x="126.0" y="550.0" type="line"/>
      <point x="10.0" y="435.0" type="line"/>
      <point x="21.0" y="419.0" type="line"/>
      <point x="138.0" y="534.0" type="line"/>
    </contour>
    <contour>
      <point x="228.0" y="374.0" type="line"/>
      <point x="208.0" y="374.0" type="line"/>
      <point x="208.0" y="337.0" type="line"/>
      <point x="228.0" y="337.0" type="line"/>
    </contour>
    <contour>
      <point x="259.0" y="326.0" type="line"/>
      <point x="243.0" y="316.0" type="line"/>
      <point x="331.0" y="216.0" type="line"/>
      <point x="349.0" y="225.0" type="line"/>
    </contour>
    <contour>
      <point x="258.0" y="330.0" type="line"/>
      <point x="228.0" y="330.0" type="line"/>
      <point x="228.0" y="309.0" type="line"/>
      <point x="258.0" y="309.0" type="line"/>
    </contour>
    <contour>
      <point x="222.0" y="351.0" type="line"/>
      <point x="208.0" y="337.0" type="line"/>
      <point x="228.0" y="309.0" type="line"/>
      <point x="241.0" y="325.0" type="line"/>
    </contour>
    <contour>
      <point x="21.0" y="440.0" type="line"/>
      <point x="17.0" y="422.0" type="line"/>
      <point x="174.0" y="372.0" type="line"/>
      <point x="179.0" y="391.0" type="line"/>
    </contour>
    <contour>
      <point x="338.0" y="230.0" type="line"/>
      <point x="237.0" y="230.0" type="line"/>
      <point x="237.0" y="210.0" type="line"/>
      <point x="338.0" y="210.0" type="line"/>
    </contour>
    <contour>
      <point x="218.0" y="326.0" type="line"/>
      <point x="237.0" y="227.0" type="line"/>
      <point x="260.0" y="216.0" type="line"/>
      <point x="239.0" y="315.0" type="line"/>
    </contour>
    <contour>
      <point x="214.0" y="352.0" type="line"/>
      <point x="176.0" y="296.0" type="line"/>
      <point x="183.0" y="279.0" type="line"/>
      <point x="223.0" y="336.0" type="line"/>
    </contour>
    <contour>
      <point x="186.0" y="385.0" type="line"/>
      <point x="166.0" y="385.0" type="line"/>
      <point x="166.0" y="279.0" type="line"/>
      <point x="186.0" y="279.0" type="line"/>
    </contour>
    <contour>
      <point x="404.0" y="292.0" type="line"/>
      <point x="265.0" y="96.0" type="line"/>
      <point x="284.0" y="90.0" type="line"/>
      <point x="421.0" y="285.0" type="line"/>
    </contour>
    <contour>
      <point x="326.0" y="226.0" type="line"/>
      <point x="222.0" y="204.0" type="line"/>
      <point x="235.0" y="186.0" type="line"/>
      <point x="338.0" y="210.0" type="line"/>
    </contour>
    <contour>
      <point x="178.0" y="294.0" type="line"/>
      <point x="166.0" y="279.0" type="line"/>
      <point x="247.0" y="210.0" type="line"/>
      <point x="259.0" y="225.0" type="line"/>
    </contour>
    <contour>
      <point x="30.0" y="435.0" type="line"/>
      <point x="10.0" y="435.0" type="line"/>
      <point x="10.0" y="298.0" type="line"/>
      <point x="30.0" y="298.0" type="line"/>
    </contour>
    <contour>
      <point x="241.0" y="229.0" type="line"/>
      <point x="129.0" y="205.0" type="line"/>
      <point x="143.0" y="192.0" type="line"/>
      <point x="257.0" y="214.0" type="line"/>
    </contour>
    <contour>
      <point x="247.0" y="206.0" type="line"/>
      <point x="134.0" y="206.0" type="line"/>
      <point x="134.0" y="186.0" type="line"/>
      <point x="232.0" y="186.0" type="line"/>
    </contour>
    <contour>
      <point x="174.0" y="295.0" type="line"/>
      <point x="23.0" y="314.0" type="line"/>
      <point x="30.0" y="295.0" type="line"/>
      <point x="180.0" y="276.0" type="line"/>
    </contour>
    <contour>
      <point x="20.0" y="313.0" type="line"/>
      <point x="10.0" y="298.0" type="line"/>
      <point x="134.0" y="186.0" type="line"/>
      <point x="146.0" y="201.0" type="line"/>
    </contour>
    <contour>
      <point x="282.0" y="104.0" type="line"/>
      <point x="268.0" y="93.0" type="line"/>
      <point x="281.0" y="57.0" type="line"/>
      <point x="295.0" y="70.0" type="line"/>
    </contour>
    <contour>
      <point x="235.0" y="186.0" type="line"/>
      <point x="225.0" y="206.0" type="line"/>
      <point x="84.0" y="49.0" type="line"/>
      <point x="109.0" y="49.0" type="line"/>
    </contour>
    <contour>
      <point x="275.0" y="107.0" type="line"/>
      <point x="104.0" y="70.0" type="line"/>
      <point x="113.0" y="53.0" type="line"/>
      <point x="281.0" y="90.0" type="line"/>
    </contour>
    <contour>
      <point x="287.0" y="71.0" type="line"/>
      <point x="105.0" y="71.0" type="line"/>
      <point x="105.0" y="49.0" type="line"/>
      <point x="287.0" y="49.0" type="line"/>
    </contour>
  </outline>
</glyph>
<glyph name="colon" format="2">
  <advance width="195.0"/>
  <unicode hex="003A"/>
  <outline>
    <contour>
      <point x="15.0" y="104.0" type="line"/>
      <point x="180.0" y="104.0" type="line"/>
      <point x="180.0" y="122.0" type="line"/>
      <point x="15.0" y="122.0" type="line"/>
    </contour>
    <contour>
      <point x="29.0" y="104.0" type="line"/>
      <point x="150.0" y="130.0" type="line"/>
      <point x="141.0" y="150.0" type="line"/>
      <point x="15.0" y="118.0" type="line"/>
    </contour>
    <contour>
      <point x="166.0" y="104.0" type="line"/>
      <point x="180.0" y="118.0" type="line"/>
      <point x="153.0" y="151.0" type="line"/>
      <point x="144.0" y="131.0" type="line"/>
    </contour>
    <contour>
      <point x="15.0" y="104.0" type="line"/>
      <point x="35.0" y="104.0" type="line"/>
      <point x="35.0" y="279.0" type="line"/>
      <point x="15.0" y="279.0" type="line"/>
    </contour>
    <contour>
      <point x="141.0" y="135.0" type="line"/>
      <point x="154.0" y="135.0" type="line"/>
      <point x="154.0" y="152.0" type="line"/>
      <point x="141.0" y="152.0" type="line"/>
    </contour>
    <contour>
      <point x="160.0" y="104.0" type="line"/>
      <point x="180.0" y="104.0" type="line"/>
      <point x="180.0" y="279.0" type="line"/>
      <point x="160.0" y="279.0" type="line"/>
    </contour>
    <contour>
      <point x="142.0" y="137.0" type="line"/>
      <point x="151.0" y="157.0" type="line"/>
      <point x="29.0" y="279.0" type="line"/>
      <point x="15.0" y="265.0" type="line"/>
    </contour>
    <contour>
      <point x="18.0" y="261.0" type="line"/>
      <point x="180.0" y="261.0" type="line"/>
      <point x="180.0" y="279.0" type="line"/>
      <point x="18.0" y="279.0" type="line"/>
    </contour>
    <contour>
      <point x="153.0" y="137.0" type="line"/>
      <point x="179.0" y="265.0" type="line"/>
      <point x="165.0" y="279.0" type="line"/>
      <point x="144.0" y="157.0" type="line"/>
    </contour>
    <contour>
      <point x="15.0" y="284.0" type="line"/>
      <point x="180.0" y="284.0" type="line"/>
      <point x="180.0" y="302.0" type="line"/>
      <point x="15.0" y="302.0" type="line"/>
    </contour>
    <contour>
      <point x="29.0" y="284.0" type="line"/>
      <point x="150.0" y="310.0" type="line"/>
      <point x="141.0" y="330.0" type="line"/>
      <point x="15.0" y="298.0" type="line"/>
    </contour>
    <contour>
      <point x="166.0" y="284.0" type="line"/>
      <point x="180.0" y="298.0" type="line"/>
      <point x="153.0" y="331.0" type="line"/>
      <point x="144.0" y="311.0" type="line"/>
    </contour>
    <contour>
      <point x="15.0" y="284.0" type="line"/>
      <point x="35.0" y="284.0" type="line"/>
      <point x="35.0" y="459.0" type="line"/>
      <point x="15.0" y="459.0" type="line"/>
    </contour>
    <contour>
      <point x="141.0" y="315.0" type="line"/>
      <point x="154.0" y="315.0" type="line"/>
      <point x="154.0" y="332.0" type="line"/>
      <point x="141.0" y="332.0" type="line"/>
    </contour>
    <contour>
      <point x="160.0" y="284.0" type="line"/>
      <point x="180.0" y="284.0" type="line"/>
      <point x="180.0" y="459.0" type="line"/>
      <point x="160.0" y="459.0" type="line"/>
    </contour>
    <contour>
      <point x="142.0" y="317.0" type="line"/>
      <point x="151.0" y="337.0" type="line"/>
      <point x="29.0" y="459.0" type="line"/>
      <point x="15.0" y="445.0" type="line"/>
    </contour>
    <contour>
      <point x="18.0" y="441.0" type="line"/>
      <point x="180.0" y="441.0" type="line"/>
      <point x="180.0" y="459.0" type="line"/>
      <point x="18.0" y="459.0" type="line"/>
    </contour>
    <contour>
      <point x="153.0" y="317.0" type="line"/>
      <point x="179.0" y="445.0" type="line"/>
      <point x="165.0" y="459.0" type="line"/>
      <point x="144.0" y="337.0" type="line"/>
    </contour>
  </outline>
</glyph>
<glyph name="question" format="2">
  <advance width="401.0"/>
  <unicode hex="003F"/>
  <outline>
    <contour>
      <point x="225.0" y="260.0" type="line"/>
      <point x="368.0" y="322.0" type="line"/>
      <point x="358.0" y="338.0" type="line"/>
      <point x="215.0" y="275.0" type="line"/>
    </contour>
    <contour>
      <point x="249.0" y="273.0" type="line"/>
      <point x="396.0" y="333.0" type="line"/>
      <point x="384.0" y="349.0" type="line"/>
      <point x="245.0" y="292.0" type="line"/>
    </contour>
    <contour>
      <point x="241.0" y="240.0" type="line"/>
      <point x="265.0" y="296.0" type="line"/>
      <point x="244.0" y="291.0" type="line"/>
      <point x="221.0" y="240.0" type="line"/>
    </contour>
    <contour>
      <point x="396.0" y="333.0" type="line"/>
      <point x="396.0" y="485.0" type="line"/>
      <point x="376.0" y="485.0" type="line"/>
      <point x="376.0" y="333.0" type="line"/>
    </contour>
    <contour>
      <point x="169.0" y="240.0" type="line"/>
      <point x="235.0" y="240.0" type="line"/>
      <point x="235.0" y="259.0" type="line"/>
      <point x="169.0" y="259.0" type="line"/>
    </contour>
    <contour>
      <point x="234.0" y="247.0" type="line"/>
      <point x="234.0" y="275.0" type="line"/>
      <point x="214.0" y="275.0" type="line"/>
      <point x="214.0" y="247.0" type="line"/>
    </contour>
    <contour>
      <point x="370.0" y="326.0" type="line"/>
      <point x="370.0" y="398.0" type="line"/>
      <point x="350.0" y="398.0" type="line"/>
      <point x="350.0" y="326.0" type="line"/>
    </contour>
    <contour>
      <point x="352.0" y="322.0" type="line"/>
      <point x="358.0" y="340.0" type="line"/>
      <point x="213.0" y="378.0" type="line"/>
      <point x="215.0" y="362.0" type="line"/>
    </contour>
    <contour>
      <point x="222.0" y="380.0" type="line"/>
      <point x="360.0" y="382.0" type="line"/>
      <point x="356.0" y="399.0" type="line"/>
      <point x="219.0" y="397.0" type="line"/>
    </contour>
    <contour>
      <point x="385.0" y="469.0" type="line"/>
      <point x="396.0" y="485.0" type="line"/>
      <point x="280.0" y="550.0" type="line"/>
      <point x="268.0" y="534.0" type="line"/>
    </contour>
    <contour>
      <point x="222.0" y="263.0" type="line"/>
      <point x="234.0" y="280.0" type="line"/>
      <point x="153.0" y="329.0" type="line"/>
      <point x="143.0" y="311.0" type="line"/>
    </contour>
    <contour>
      <point x="174.0" y="240.0" type="line"/>
      <point x="155.0" y="324.0" type="line"/>
      <point x="135.0" y="325.0" type="line"/>
      <point x="154.0" y="240.0" type="line"/>
    </contour>
    <contour>
      <point x="228.0" y="366.0" type="line"/>
      <point x="228.0" y="394.0" type="line"/>
      <point x="208.0" y="394.0" type="line"/>
      <point x="208.0" y="366.0" type="line"/>
    </contour>
    <contour>
      <point x="354.0" y="387.0" type="line"/>
      <point x="366.0" y="402.0" type="line"/>
      <point x="295.0" y="444.0" type="line"/>
      <point x="283.0" y="429.0" type="line"/>
    </contour>
    <contour>
      <point x="145.0" y="309.0" type="line"/>
      <point x="228.0" y="365.0" type="line"/>
      <point x="218.0" y="379.0" type="line"/>
      <point x="135.0" y="325.0" type="line"/>
    </contour>
    <contour>
      <point x="215.0" y="382.0" type="line"/>
      <point x="229.0" y="395.0" type="line"/>
      <point x="216.0" y="415.0" type="line"/>
      <point x="191.0" y="407.0" type="line"/>
    </contour>
    <contour>
      <point x="217.0" y="396.0" type="line"/>
      <point x="217.0" y="417.0" type="line"/>
      <point x="167.0" y="417.0" type="line"/>
      <point x="167.0" y="396.0" type="line"/>
    </contour>
    <contour>
      <point x="159.0" y="371.0" type="line"/>
      <point x="159.0" y="394.0" type="line"/>
      <point x="139.0" y="394.0" type="line"/>
      <point x="139.0" y="371.0" type="line"/>
    </contour>
    <contour>
      <point x="148.0" y="379.0" type="line"/>
      <point x="185.0" y="406.0" type="line"/>
      <point x="171.0" y="421.0" type="line"/>
      <point x="137.0" y="394.0" type="line"/>
    </contour>
    <contour>
      <point x="183.0" y="405.0" type="line"/>
      <point x="213.0" y="434.0" type="line"/>
      <point x="193.0" y="436.0" type="line"/>
      <point x="166.0" y="407.0" type="line"/>
    </contour>
    <contour>
      <point x="298.0" y="424.0" type="line"/>
      <point x="295.0" y="444.0" type="line"/>
      <point x="188.0" y="444.0" type="line"/>
      <point x="188.0" y="424.0" type="line"/>
    </contour>
    <contour>
      <point x="159.0" y="356.0" type="line"/>
      <point x="159.0" y="376.0" type="line"/>
      <point x="5.0" y="376.0" type="line"/>
      <point x="5.0" y="356.0" type="line"/>
    </contour>
    <contour>
      <point x="127.0" y="385.0" type="line"/>
      <point x="203.0" y="430.0" type="line"/>
      <point x="195.0" y="444.0" type="line"/>
      <point x="112.0" y="395.0" type="line"/>
    </contour>
    <contour>
      <point x="280.0" y="530.0" type="line"/>
      <point x="280.0" y="550.0" type="line"/>
      <point x="114.0" y="550.0" type="line"/>
      <point x="117.0" y="530.0" type="line"/>
    </contour>
    <contour>
      <point x="123.0" y="402.0" type="line"/>
      <point x="21.0" y="471.0" type="line"/>
      <point x="14.0" y="455.0" type="line"/>
      <point x="113.0" y="386.0" type="line"/>
    </contour>
    <contour>
      <point x="190.0" y="432.0" type="line"/>
      <point x="203.0" y="444.0" type="line"/>
      <point x="128.0" y="546.0" type="line"/>
      <point x="108.0" y="539.0" type="line"/>
    </contour>
    <contour>
      <point x="25.0" y="376.0" type="line"/>
      <point x="25.0" y="463.0" type="line"/>
      <point x="5.0" y="466.0" type="line"/>
      <point x="5.0" y="376.0" type="line"/>
    </contour>
    <contour>
      <point x="15.0" y="448.0" type="line"/>
      <point x="127.0" y="535.0" type="line"/>
      <point x="114.0" y="550.0" type="line"/>
      <point x="5.0" y="466.0" type="line"/>
    </contour>
    <contour>
      <point x="113.0" y="386.0" type="line"/>
      <point x="147.0" y="381.0" type="line"/>
      <point x="155.0" y="397.0" type="line"/>
      <point x="123.0" y="402.0" type="line"/>
    </contour>
    <contour>
      <point x="364.0" y="372.0" type="line"/>
      <point x="390.0" y="470.0" type="line"/>
      <point x="372.0" y="482.0" type="line"/>
      <point x="354.0" y="394.0" type="line"/>
    </contour>
    <contour>
      <point x="383.0" y="331.0" type="line"/>
      <point x="389.0" y="348.0" type="line"/>
      <point x="363.0" y="341.0" type="line"/>
      <point x="353.0" y="323.0" type="line"/>
    </contour>
    <contour>
      <point x="253.0" y="278.0" type="line"/>
      <point x="259.0" y="297.0" type="line"/>
      <point x="235.0" y="277.0" type="line"/>
      <point x="229.0" y="259.0" type="line"/>
    </contour>
    <contour>
      <point x="223.0" y="240.0" type="line"/>
      <point x="237.0" y="240.0" type="line"/>
      <point x="237.0" y="259.0" type="line"/>
      <point x="223.0" y="259.0" type="line"/>
    </contour>
    <contour>
      <point x="115.0" y="50.0" type="line"/>
      <point x="280.0" y="50.0" type="line"/>
      <point x="280.0" y="68.0" type="line"/>
      <point x="115.0" y="68.0" type="line"/>
    </contour>
    <contour>
      <point x="129.0" y="50.0" type="line"/>
      <point x="245.0" y="79.0" type="line"/>
      <point x="236.0" y="99.0" type="line"/>
      <point x="115.0" y="64.0" type="line"/>
    </contour>
    <contour>
      <point x="266.0" y="50.0" type="line"/>
      <point x="280.0" y="64.0" type="line"/>
      <point x="251.0" y="100.0" type="line"/>
      <point x="239.0" y="80.0" type="line"/>
    </contour>
    <contour>
      <point x="115.0" y="50.0" type="line"/>
      <point x="135.0" y="50.0" type="line"/>
      <point x="135.0" y="225.0" type="line"/>
      <point x="115.0" y="225.0" type="line"/>
    </contour>
    <contour>
      <point x="236.0" y="84.0" type="line"/>
      <point x="252.0" y="84.0" type="line"/>
      <point x="252.0" y="101.0" type="line"/>
      <point x="236.0" y="101.0" type="line"/>
    </contour>
    <contour>
      <point x="260.0" y="50.0" type="line"/>
      <point x="280.0" y="50.0" type="line"/>
      <point x="280.0" y="225.0" type="line"/>
      <point x="260.0" y="225.0" type="line"/>
    </contour>
    <contour>
      <point x="237.0" y="86.0" type="line"/>
      <point x="246.0" y="106.0" type="line"/>
      <point x="129.0" y="225.0" type="line"/>
      <point x="115.0" y="211.0" type="line"/>
    </contour>
    <contour>
      <point x="118.0" y="207.0" type="line"/>
      <point x="280.0" y="207.0" type="line"/>
      <point x="280.0" y="225.0" type="line"/>
      <point x="118.0" y="225.0" type="line"/>
    </contour>
    <contour>
      <point x="251.0" y="86.0" type="line"/>
      <point x="279.0" y="211.0" type="line"/>
      <point x="265.0" y="225.0" type="line"/>
      <point x="239.0" y="106.0" type="line"/>
    </contour>
    <contour>
      <point x="210.0" y="399.0" type="line"/>
      <point x="302.0" y="433.0" type="line"/>
      <point x="284.0" y="439.0" type="line"/>
      <point x="196.0" y="411.0" type="line"/>
    </contour>
    <contour>
      <point x="299.0" y="431.0" type="line"/>
      <point x="293.0" y="535.0" type="line"/>
      <point x="275.0" y="541.0" type="line"/>
      <point x="280.0" y="432.0" type="line"/>
    </contour>
  </outline>
</glyph>
<glyph name="B" format="2">
  <advance width="529.0"/>
  <unicode hex="0042"/>
  <anchor x="257.0" y="50.0" name="bottom"/>
  <anchor x="257.0" y="300.0" name="center"/>
  <anchor x="257.0" y="550.0" name="top"/>
  <outline>
    <contour>
      <point x="10.0" y="50.0" type="line"/>
      <point x="30.0" y="50.0" type="line"/>
      <point x="30.0" y="550.0" type="line"/>
      <point x="10.0" y="550.0" type="line"/>
    </contour>
    <contour>
      <point x="168.0" y="87.0" type="line"/>
      <point x="188.0" y="87.0" type="line"/>
      <point x="188.0" y="431.0" type="line"/>
      <point x="168.0" y="431.0" type="line"/>
    </contour>
    <contour>
      <point x="211.0" y="334.0" type="line"/>
      <point x="231.0" y="334.0" type="line"/>
      <point x="231.0" y="390.0" type="line"/>
      <point x="211.0" y="390.0" type="line"/>
    </contour>
    <contour>
      <point x="211.0" y="168.0" type="line"/>
      <point x="231.0" y="168.0" type="line"/>
      <point x="231.0" y="230.0" type="line"/>
      <point x="211.0" y="230.0" type="line"/>
    </contour>
    <contour>
      <point x="504.0" y="88.0" type="line"/>
      <point x="524.0" y="88.0" type="line"/>
      <point x="524.0" y="229.0" type="line"/>
      <point x="504.0" y="229.0" type="line"/>
    </contour>
    <contour>
      <point x="501.0" y="359.0" type="line"/>
      <point x="521.0" y="359.0" type="line"/>
      <point x="521.0" y="479.0" type="line"/>
      <point x="501.0" y="479.0" type="line"/>
    </contour>
    <contour>
      <point x="11.0" y="70.0" type="line"/>
      <point x="11.0" y="50.0" type="line"/>
      <point x="399.0" y="50.0" type="line"/>
      <point x="399.0" y="70.0" type="line"/>
    </contour>
    <contour>
      <point x="11.0" y="550.0" type="line"/>
      <point x="11.0" y="530.0" type="line"/>
      <point x="400.0" y="530.0" type="line"/>
      <point x="400.0" y="550.0" type="line"/>
    </contour>
    <contour>
      <point x="168.0" y="431.0" type="line"/>
      <point x="168.0" y="411.0" type="line"/>
      <point x="413.0" y="411.0" type="line"/>
      <point x="425.0" y="431.0" type="line"/>
    </contour>
    <contour>
      <point x="168.0" y="101.0" type="line"/>
      <point x="168.0" y="81.0" type="line"/>
      <point x="423.0" y="81.0" type="line"/>
      <point x="423.0" y="101.0" type="line"/>
    </contour>
    <contour>
      <point x="459.0" y="331.0" type="line"/>
      <point x="479.0" y="331.0" type="line"/>
      <point x="479.0" y="385.0" type="line"/>
      <point x="459.0" y="385.0" type="line"/>
    </contour>
    <contour>
      <point x="458.0" y="111.0" type="line"/>
      <point x="478.0" y="111.0" type="line"/>
      <point x="478.0" y="171.0" type="line"/>
      <point x="458.0" y="171.0" type="line"/>
    </contour>
    <contour>
      <point x="211.0" y="186.0" type="line"/>
      <point x="211.0" y="166.0" type="line"/>
      <point x="312.0" y="166.0" type="line"/>
      <point x="312.0" y="186.0" type="line"/>
    </contour>
    <contour>
      <point x="211.0" y="231.0" type="line"/>
      <point x="211.0" y="212.0" type="line"/>
      <point x="318.0" y="212.0" type="line"/>
      <point x="318.0" y="231.0" type="line"/>
    </contour>
    <contour>
      <point x="211.0" y="391.0" type="line"/>
      <point x="211.0" y="371.0" type="line"/>
      <point x="307.0" y="371.0" type="line"/>
      <point x="307.0" y="391.0" type="line"/>
    </contour>
    <contour>
      <point x="211.0" y="349.0" type="line"/>
      <point x="211.0" y="329.0" type="line"/>
      <point x="307.0" y="329.0" type="line"/>
      <point x="307.0" y="349.0" type="line"/>
    </contour>
    <contour>
      <point x="25.0" y="61.0" type="line"/>
      <point x="186.0" y="82.0" type="line"/>
      <point x="173.0" y="98.0" type="line"/>
      <point x="13.0" y="76.0" type="line"/>
    </contour>
    <contour>
      <point x="217.0" y="213.0" type="line"/>
      <point x="228.0" y="228.0" type="line"/>
      <point x="182.0" y="269.0" type="line"/>
      <point x="170.0" y="253.0" type="line"/>
    </contour>
    <contour>
      <point x="215.0" y="376.0" type="line"/>
      <point x="227.0" y="391.0" type="line"/>
      <point x="181.0" y="430.0" type="line"/>
      <point x="168.0" y="414.0" type="line"/>
    </contour>
    <contour>
      <point x="217.0" y="349.0" type="line"/>
      <point x="168.0" y="262.0" type="line"/>
      <point x="179.0" y="246.0" type="line"/>
      <point x="227.0" y="334.0" type="line"/>
    </contour>
    <contour>
      <point x="221.0" y="188.0" type="line"/>
      <point x="174.0" y="101.0" type="line"/>
      <point x="184.0" y="85.0" type="line"/>
      <point x="231.0" y="173.0" type="line"/>
    </contour>
    <contour>
      <point x="384.0" y="257.0" type="line"/>
      <point x="382.0" y="258.0" type="line"/>
      <point x="308.0" y="344.0" type="line"/>
      <point x="298.0" y="335.0" type="line"/>
      <point x="368.0" y="248.0" type="line"/>
      <point x="371.0" y="256.0" type="line"/>
      <point x="381.0" y="249.0" type="line"/>
      <point x="521.0" y="359.0" type="line"/>
      <point x="511.0" y="374.0" type="line"/>
      <point x="367.0" y="261.0" type="line"/>
      <point x="380.0" y="257.0" type="line"/>
      <point x="368.0" y="248.0" type="line"/>
      <point x="514.0" y="210.0" type="line"/>
      <point x="524.0" y="229.0" type="line"/>
      <point x="383.0" y="261.0" type="line"/>
      <point x="372.0" y="260.0" type="line"/>
      <point x="367.0" y="256.0" type="line"/>
      <point x="310.0" y="229.0" type="line"/>
      <point x="324.0" y="214.0" type="line"/>
      <point x="393.0" y="247.0" type="line"/>
    </contour>
    <contour>
      <point x="503.0" y="83.0" type="line"/>
      <point x="511.0" y="99.0" type="line"/>
      <point x="476.0" y="126.0" type="line"/>
      <point x="463.0" y="112.0" type="line"/>
    </contour>
    <contour>
      <point x="386.0" y="63.0" type="line"/>
      <point x="406.0" y="64.0" type="line"/>
      <point x="442.0" y="91.0" type="line"/>
      <point x="417.0" y="86.0" type="line"/>
    </contour>
    <contour>
      <point x="506.0" y="485.0" type="line"/>
      <point x="462.0" y="385.0" type="line"/>
      <point x="475.0" y="373.0" type="line"/>
      <point x="519.0" y="470.0" type="line"/>
    </contour>
    <contour>
      <point x="514.0" y="104.0" type="line"/>
      <point x="388.0" y="66.0" type="line"/>
      <point x="399.0" y="50.0" type="line"/>
      <point x="524.0" y="88.0" type="line"/>
    </contour>
    <contour>
      <point x="511.0" y="464.0" type="line"/>
      <point x="521.0" y="479.0" type="line"/>
      <point x="400.0" y="550.0" type="line"/>
      <point x="389.0" y="534.0" type="line"/>
    </contour>
    <contour>
      <point x="468.0" y="126.0" type="line"/>
      <point x="418.0" y="98.0" type="line"/>
      <point x="429.0" y="83.0" type="line"/>
      <point x="478.0" y="111.0" type="line"/>
    </contour>
    <contour>
      <point x="471.0" y="349.0" type="line"/>
      <point x="339.0" y="301.0" type="line"/>
      <point x="355.0" y="287.0" type="line"/>
      <point x="479.0" y="331.0" type="line"/>
    </contour>
    <contour>
      <point x="469.0" y="369.0" type="line"/>
      <point x="479.0" y="384.0" type="line"/>
      <point x="416.0" y="430.0" type="line"/>
      <point x="405.0" y="414.0" type="line"/>
    </contour>
    <contour>
      <point x="467.0" y="158.0" type="line"/>
      <point x="478.0" y="171.0" type="line"/>
      <point x="362.0" y="236.0" type="line"/>
      <point x="333.0" y="230.0" type="line"/>
    </contour>
    <contour>
      <point x="327.0" y="192.0" type="line"/>
      <point x="336.0" y="209.0" type="line"/>
      <point x="309.0" y="231.0" type="line"/>
      <point x="298.0" y="213.0" type="line"/>
    </contour>
    <contour>
      <point x="321.0" y="186.0" type="line"/>
      <point x="336.0" y="186.0" type="line"/>
      <point x="336.0" y="208.0" type="line"/>
      <point x="321.0" y="208.0" type="line"/>
    </contour>
    <contour>
      <point x="328.0" y="202.0" type="line"/>
      <point x="302.0" y="183.0" type="line"/>
      <point x="312.0" y="166.0" type="line"/>
      <point x="334.0" y="186.0" type="line"/>
    </contour>
    <contour>
      <point x="459.0" y="174.0" type="line"/>
      <point x="460.0" y="154.0" type="line"/>
      <point x="518.0" y="210.0" type="line"/>
      <point x="501.0" y="226.0" type="line"/>
    </contour>
    <contour>
      <point x="451.0" y="321.0" type="line"/>
      <point x="510.0" y="356.0" type="line"/>
      <point x="505.0" y="372.0" type="line"/>
      <point x="470.0" y="343.0" type="line"/>
    </contour>
    <contour>
      <point x="168.0" y="270.0" type="line"/>
      <point x="168.0" y="250.0" type="line"/>
      <point x="367.0" y="250.0" type="line"/>
      <point x="367.0" y="270.0" type="line"/>
    </contour>
    <contour>
      <point x="414.0" y="421.0" type="line"/>
      <point x="291.0" y="388.0" type="line"/>
      <point x="306.0" y="377.0" type="line"/>
      <point x="428.0" y="411.0" type="line"/>
    </contour>
    <contour>
      <point x="390.0" y="546.0" type="line"/>
      <point x="409.0" y="412.0" type="line"/>
      <point x="427.0" y="412.0" type="line"/>
      <point x="409.0" y="534.0" type="line"/>
    </contour>
    <contour>
      <point x="326.0" y="356.0" type="line"/>
      <point x="336.0" y="371.0" type="line"/>
      <point x="307.0" y="391.0" type="line"/>
      <point x="297.0" y="374.0" type="line"/>
    </contour>
    <contour>
      <point x="316.0" y="349.0" type="line"/>
      <point x="336.0" y="339.0" type="line"/>
      <point x="336.0" y="371.0" type="line"/>
      <point x="316.0" y="371.0" type="line"/>
    </contour>
    <contour>
      <point x="327.0" y="355.0" type="line"/>
      <point x="297.0" y="346.0" type="line"/>
      <point x="307.0" y="329.0" type="line"/>
      <point x="336.0" y="339.0" type="line"/>
    </contour>
    <contour>
      <point x="329.0" y="361.0" type="line"/>
      <point x="465.0" y="366.0" type="line"/>
      <point x="465.0" y="383.0" type="line"/>
      <point x="322.0" y="378.0" type="line"/>
    </contour>
    <contour>
      <point x="320.0" y="358.0" type="line"/>
      <point x="320.0" y="339.0" type="line"/>
      <point x="465.0" y="331.0" type="line"/>
      <point x="469.0" y="351.0" type="line"/>
    </contour>
    <contour>
      <point x="329.0" y="198.0" type="line"/>
      <point x="323.0" y="181.0" type="line"/>
      <point x="465.0" y="107.0" type="line"/>
      <point x="478.0" y="121.0" type="line"/>
    </contour>
    <contour>
      <point x="329.0" y="199.0" type="line"/>
      <point x="468.0" y="156.0" type="line"/>
      <point x="468.0" y="175.0" type="line"/>
      <point x="322.0" y="221.0" type="line"/>
    </contour>
    <contour>
      <point x="419.0" y="80.0" type="line"/>
      <point x="437.0" y="91.0" type="line"/>
      <point x="309.0" y="182.0" type="line"/>
      <point x="295.0" y="171.0" type="line"/>
    </contour>
    <contour>
      <point x="25.0" y="548.0" type="line"/>
      <point x="13.0" y="535.0" type="line"/>
      <point x="170.0" y="414.0" type="line"/>
      <point x="183.0" y="428.0" type="line"/>
    </contour>
  </outline>
</glyph>
<glyph name="D" format="2">
  <advance width="529.0"/>
  <unicode hex="0044"/>
  <anchor x="247.0" y="50.0" name="bottom"/>
  <anchor x="247.0" y="300.0" name="center"/>
  <anchor x="247.0" y="550.0" name="top"/>
  <outline>
    <contour>
      <point x="215.0" y="380.0" type="line"/>
      <point x="226.0" y="394.0" type="line"/>
      <point x="175.0" y="424.0" type="line"/>
      <point x="167.0" y="409.0" type="line"/>
    </contour>
    <contour>
      <point x="34.0" y="56.0" type="line"/>
      <point x="178.0" y="107.0" type="line"/>
      <point x="163.0" y="120.0" type="line"/>
      <point x="17.0" y="70.0" type="line"/>
    </contour>
    <contour>
      <point x="18.0" y="50.0" type="line"/>
      <point x="378.0" y="50.0" type="line"/>
      <point x="383.0" y="70.0" type="line"/>
      <point x="18.0" y="70.0" type="line"/>
    </contour>
    <contour>
      <point x="10.0" y="50.0" type="line"/>
      <point x="30.0" y="50.0" type="line"/>
      <point x="30.0" y="550.0" type="line"/>
      <point x="10.0" y="550.0" type="line"/>
    </contour>
    <contour>
      <point x="173.0" y="115.0" type="line"/>
      <point x="226.0" y="229.0" type="line"/>
      <point x="215.0" y="235.0" type="line"/>
      <point x="160.0" y="122.0" type="line"/>
    </contour>
    <contour>
      <point x="164.0" y="105.0" type="line"/>
      <point x="374.0" y="105.0" type="line"/>
      <point x="374.0" y="123.0" type="line"/>
      <point x="164.0" y="123.0" type="line"/>
    </contour>
    <contour>
      <point x="155.0" y="105.0" type="line"/>
      <point x="173.0" y="105.0" type="line"/>
      <point x="173.0" y="427.0" type="line"/>
      <point x="155.0" y="427.0" type="line"/>
    </contour>
    <contour>
      <point x="212.0" y="216.0" type="line"/>
      <point x="284.0" y="216.0" type="line"/>
      <point x="284.0" y="235.0" type="line"/>
      <point x="212.0" y="235.0" type="line"/>
    </contour>
    <contour>
      <point x="365.0" y="59.0" type="line"/>
      <point x="385.0" y="66.0" type="line"/>
      <point x="382.0" y="119.0" type="line"/>
      <point x="363.0" y="110.0" type="line"/>
    </contour>
    <contour>
      <point x="367.0" y="108.0" type="line"/>
      <point x="382.0" y="118.0" type="line"/>
      <point x="280.0" y="230.0" type="line"/>
      <point x="267.0" y="220.0" type="line"/>
    </contour>
    <contour>
      <point x="283.0" y="213.0" type="line"/>
      <point x="320.0" y="262.0" type="line"/>
      <point x="306.0" y="273.0" type="line"/>
      <point x="269.0" y="224.0" type="line"/>
    </contour>
    <contour>
      <point x="212.0" y="216.0" type="line"/>
      <point x="230.0" y="216.0" type="line"/>
      <point x="230.0" y="392.0" type="line"/>
      <point x="212.0" y="392.0" type="line"/>
    </contour>
    <contour>
      <point x="377.0" y="104.0" type="line"/>
      <point x="473.0" y="201.0" type="line"/>
      <point x="457.0" y="208.0" type="line"/>
      <point x="367.0" y="117.0" type="line"/>
    </contour>
    <contour>
      <point x="378.0" y="50.0" type="line"/>
      <point x="524.0" y="196.0" type="line"/>
      <point x="505.0" y="202.0" type="line"/>
      <point x="365.0" y="61.0" type="line"/>
    </contour>
    <contour>
      <point x="458.0" y="196.0" type="line"/>
      <point x="468.0" y="208.0" type="line"/>
      <point x="308.0" y="276.0" type="line"/>
      <point x="304.0" y="260.0" type="line"/>
    </contour>
    <contour>
      <point x="304.0" y="258.0" type="line"/>
      <point x="324.0" y="260.0" type="line"/>
      <point x="324.0" y="355.0" type="line"/>
      <point x="304.0" y="355.0" type="line"/>
    </contour>
    <contour>
      <point x="506.0" y="197.0" type="line"/>
      <point x="517.0" y="210.0" type="line"/>
      <point x="464.0" y="210.0" type="line"/>
      <point x="457.0" y="196.0" type="line"/>
    </contour>
    <contour>
      <point x="212.0" y="381.0" type="line"/>
      <point x="289.0" y="381.0" type="line"/>
      <point x="289.0" y="398.0" type="line"/>
      <point x="212.0" y="398.0" type="line"/>
    </contour>
    <contour>
      <point x="311.0" y="341.0" type="line"/>
      <point x="324.0" y="353.0" type="line"/>
      <point x="289.0" y="398.0" type="line"/>
      <point x="279.0" y="384.0" type="line"/>
    </contour>
    <contour>
      <point x="157.0" y="410.0" type="line"/>
      <point x="372.0" y="410.0" type="line"/>
      <point x="372.0" y="427.0" type="line"/>
      <point x="157.0" y="427.0" type="line"/>
    </contour>
    <contour>
      <point x="448.0" y="204.0" type="line"/>
      <point x="468.0" y="204.0" type="line"/>
      <point x="468.0" y="354.0" type="line"/>
      <point x="448.0" y="354.0" type="line"/>
    </contour>
    <contour>
      <point x="289.0" y="380.0" type="line"/>
      <point x="376.0" y="415.0" type="line"/>
      <point x="363.0" y="426.0" type="line"/>
      <point x="278.0" y="394.0" type="line"/>
    </contour>
    <contour>
      <point x="26.0" y="530.0" type="line"/>
      <point x="385.0" y="530.0" type="line"/>
      <point x="389.0" y="550.0" type="line"/>
      <point x="26.0" y="550.0" type="line"/>
    </contour>
    <contour>
      <point x="309.0" y="339.0" type="line"/>
      <point x="464.0" y="343.0" type="line"/>
      <point x="452.0" y="358.0" type="line"/>
      <point x="305.0" y="354.0" type="line"/>
    </contour>
    <contour>
      <point x="458.0" y="339.0" type="line"/>
      <point x="468.0" y="354.0" type="line"/>
      <point x="375.0" y="423.0" type="line"/>
      <point x="361.0" y="410.0" type="line"/>
    </contour>
    <contour>
      <point x="524.0" y="196.0" type="line"/>
      <point x="524.0" y="419.0" type="line"/>
      <point x="506.0" y="419.0" type="line"/>
      <point x="506.0" y="200.0" type="line"/>
    </contour>
    <contour>
      <point x="378.0" y="414.0" type="line"/>
      <point x="385.0" y="530.0" type="line"/>
      <point x="370.0" y="536.0" type="line"/>
      <point x="364.0" y="424.0" type="line"/>
    </contour>
    <contour>
      <point x="464.0" y="344.0" type="line"/>
      <point x="520.0" y="411.0" type="line"/>
      <point x="509.0" y="423.0" type="line"/>
      <point x="453.0" y="356.0" type="line"/>
    </contour>
    <contour>
      <point x="507.0" y="411.0" type="line"/>
      <point x="524.0" y="419.0" type="line"/>
      <point x="388.0" y="550.0" type="line"/>
      <point x="378.0" y="537.0" type="line"/>
    </contour>
    <contour>
      <point x="162.0" y="410.0" type="line"/>
      <point x="173.0" y="424.0" type="line"/>
      <point x="25.0" y="540.0" type="line"/>
      <point x="17.0" y="525.0" type="line"/>
    </contour>
  </outline>
</glyph>
<glyph name="E" format="2">
  <advance width="425.0"/>
  <unicode hex="0045"/>
  <anchor x="225.0" y="50.0" name="bottom"/>
  <anchor x="401.0" y="50.0" name="ogonek"/>
  <anchor x="225.0" y="550.0" name="top"/>
  <anchor x="25.0" y="550.0" name="topleft"/>
  <outline>
    <contour>
      <point x="23.0" y="52.0" type="line"/>
      <point x="185.0" y="81.0" type="line"/>
      <point x="172.0" y="98.0" type="line"/>
      <point x="10.0" y="65.0" type="line"/>
    </contour>
    <contour>
      <point x="10.0" y="50.0" type="line"/>
      <point x="30.0" y="50.0" type="line"/>
      <point x="30.0" y="550.0" type="line"/>
      <point x="10.0" y="550.0" type="line"/>
    </contour>
    <contour>
      <point x="170.0" y="91.0" type="line"/>
      <point x="190.0" y="91.0" type="line"/>
      <point x="190.0" y="411.0" type="line"/>
      <point x="170.0" y="411.0" type="line"/>
    </contour>
    <contour>
      <point x="215.0" y="204.0" type="line"/>
      <point x="227.0" y="221.0" type="line"/>
      <point x="183.0" y="249.0" type="line"/>
      <point x="177.0" y="232.0" type="line"/>
    </contour>
    <contour>
      <point x="213.0" y="203.0" type="line"/>
      <point x="340.0" y="203.0" type="line"/>
      <point x="340.0" y="223.0" type="line"/>
      <point x="213.0" y="223.0" type="line"/>
    </contour>
    <contour>
      <point x="191.0" y="244.0" type="line"/>
      <point x="235.0" y="341.0" type="line"/>
      <point x="220.0" y="353.0" type="line"/>
      <point x="176.0" y="257.0" type="line"/>
    </contour>
    <contour>
      <point x="172.0" y="395.0" type="line"/>
      <point x="185.0" y="410.0" type="line"/>
      <point x="29.0" y="545.0" type="line"/>
      <point x="16.0" y="530.0" type="line"/>
    </contour>
    <contour>
      <point x="190.0" y="237.0" type="line"/>
      <point x="329.0" y="237.0" type="line"/>
      <point x="329.0" y="257.0" type="line"/>
      <point x="190.0" y="257.0" type="line"/>
    </contour>
    <contour>
      <point x="220.0" y="333.0" type="line"/>
      <point x="340.0" y="333.0" type="line"/>
      <point x="340.0" y="353.0" type="line"/>
      <point x="220.0" y="353.0" type="line"/>
    </contour>
    <contour>
      <point x="328.0" y="207.0" type="line"/>
      <point x="344.0" y="222.0" type="line"/>
      <point x="316.0" y="255.0" type="line"/>
      <point x="298.0" y="242.0" type="line"/>
    </contour>
    <contour>
      <point x="324.0" y="237.0" type="line"/>
      <point x="343.0" y="338.0" type="line"/>
      <point x="330.0" y="353.0" type="line"/>
      <point x="303.0" y="246.0" type="line"/>
    </contour>
    <contour>
      <point x="330.0" y="205.0" type="line"/>
      <point x="350.0" y="205.0" type="line"/>
      <point x="350.0" y="353.0" type="line"/>
      <point x="330.0" y="353.0" type="line"/>
    </contour>
    <contour>
      <point x="210.0" y="202.0" type="line"/>
      <point x="230.0" y="202.0" type="line"/>
      <point x="230.0" y="223.0" type="line"/>
      <point x="210.0" y="223.0" type="line"/>
    </contour>
    <contour>
      <point x="20.0" y="50.0" type="line"/>
      <point x="410.0" y="50.0" type="line"/>
      <point x="410.0" y="70.0" type="line"/>
      <point x="20.0" y="70.0" type="line"/>
    </contour>
    <contour>
      <point x="189.0" y="84.0" type="line"/>
      <point x="229.0" y="207.0" type="line"/>
      <point x="216.0" y="222.0" type="line"/>
      <point x="174.0" y="95.0" type="line"/>
    </contour>
    <contour>
      <point x="176.0" y="81.0" type="line"/>
      <point x="375.0" y="81.0" type="line"/>
      <point x="375.0" y="101.0" type="line"/>
      <point x="176.0" y="101.0" type="line"/>
    </contour>
    <contour>
      <point x="216.0" y="202.0" type="line"/>
      <point x="410.0" y="202.0" type="line"/>
      <point x="410.0" y="222.0" type="line"/>
      <point x="216.0" y="222.0" type="line"/>
    </contour>
    <contour>
      <point x="400.0" y="61.0" type="line"/>
      <point x="413.0" y="77.0" type="line"/>
      <point x="380.0" y="97.0" type="line"/>
      <point x="365.0" y="82.0" type="line"/>
    </contour>
    <contour>
      <point x="381.0" y="81.0" type="line"/>
      <point x="417.0" y="207.0" type="line"/>
      <point x="404.0" y="222.0" type="line"/>
      <point x="364.0" y="90.0" type="line"/>
    </contour>
    <contour>
      <point x="400.0" y="50.0" type="line"/>
      <point x="420.0" y="50.0" type="line"/>
      <point x="420.0" y="222.0" type="line"/>
      <point x="400.0" y="222.0" type="line"/>
    </contour>
    <contour>
      <point x="20.0" y="550.0" type="line"/>
      <point x="20.0" y="530.0" type="line"/>
      <point x="410.0" y="530.0" type="line"/>
      <point x="410.0" y="550.0" type="line"/>
    </contour>
    <contour>
      <point x="191.0" y="405.0" type="line"/>
      <point x="176.0" y="394.0" type="line"/>
      <point x="213.0" y="366.0" type="line"/>
      <point x="229.0" y="379.0" type="line"/>
    </contour>
    <contour>
      <point x="176.0" y="413.0" type="line"/>
      <point x="176.0" y="393.0" type="line"/>
      <point x="384.0" y="393.0" type="line"/>
      <point x="384.0" y="413.0" type="line"/>
    </contour>
    <contour>
      <point x="210.0" y="380.0" type="line"/>
      <point x="210.0" y="360.0" type="line"/>
      <point x="410.0" y="360.0" type="line"/>
      <point x="410.0" y="380.0" type="line"/>
    </contour>
    <contour>
      <point x="396.0" y="543.0" type="line"/>
      <point x="373.0" y="408.0" type="line"/>
      <point x="388.0" y="394.0" type="line"/>
      <point x="413.0" y="530.0" type="line"/>
    </contour>
    <contour>
      <point x="387.0" y="411.0" type="line"/>
      <point x="362.0" y="399.0" type="line"/>
      <point x="400.0" y="367.0" type="line"/>
      <point x="413.0" y="382.0" type="line"/>
    </contour>
    <contour>
      <point x="400.0" y="550.0" type="line"/>
      <point x="400.0" y="360.0" type="line"/>
      <point x="420.0" y="360.0" type="line"/>
      <point x="420.0" y="550.0" type="line"/>
    </contour>
    <contour>
      <point x="210.0" y="333.0" type="line"/>
      <point x="230.0" y="333.0" type="line"/>
      <point x="230.0" y="376.0" type="line"/>
      <point x="210.0" y="376.0" type="line"/>
    </contour>
  </outline>
</glyph>
<glyph name="I" format="2">
  <advance width="240.0"/>
  <unicode hex="0049"/>
  <anchor x="130.0" y="50.0" name="bottom"/>
  <anchor x="212.0" y="68.0" name="ogonek"/>
  <anchor x="130.0" y="550.0" name="top"/>
  <anchor x="25.0" y="550.0" name="topleft"/>
  <outline>
    <contour>
      <point x="10.0" y="50.0" type="line"/>
      <point x="230.0" y="50.0" type="line"/>
      <point x="230.0" y="69.0" type="line"/>
      <point x="10.0" y="69.0" type="line"/>
    </contour>
    <contour>
      <point x="23.0" y="50.0" type="line"/>
      <point x="168.0" y="106.0" type="line"/>
      <point x="155.0" y="121.0" type="line"/>
      <point x="10.0" y="66.0" type="line"/>
    </contour>
    <contour>
      <point x="217.0" y="50.0" type="line"/>
      <point x="230.0" y="66.0" type="line"/>
      <point x="171.0" y="121.0" type="line"/>
      <point x="158.0" y="106.0" type="line"/>
    </contour>
    <contour>
      <point x="10.0" y="50.0" type="line"/>
      <point x="30.0" y="50.0" type="line"/>
      <point x="30.0" y="550.0" type="line"/>
      <point x="10.0" y="550.0" type="line"/>
    </contour>
    <contour>
      <point x="153.0" y="104.0" type="line"/>
      <point x="173.0" y="104.0" type="line"/>
      <point x="173.0" y="402.0" type="line"/>
      <point x="153.0" y="402.0" type="line"/>
    </contour>
    <contour>
      <point x="210.0" y="50.0" type="line"/>
      <point x="230.0" y="50.0" type="line"/>
      <point x="230.0" y="550.0" type="line"/>
      <point x="210.0" y="550.0" type="line"/>
    </contour>
    <contour>
      <point x="155.0" y="387.0" type="line"/>
      <point x="168.0" y="400.0" type="line"/>
      <point x="23.0" y="550.0" type="line"/>
      <point x="10.0" y="537.0" type="line"/>
    </contour>
    <contour>
      <point x="15.0" y="530.0" type="line"/>
      <point x="230.0" y="530.0" type="line"/>
      <point x="230.0" y="550.0" type="line"/>
      <point x="15.0" y="550.0" type="line"/>
    </contour>
    <contour>
      <point x="170.0" y="387.0" type="line"/>
      <point x="229.0" y="537.0" type="line"/>
      <point x="216.0" y="550.0" type="line"/>
      <point x="157.0" y="400.0" type="line"/>
    </contour>
  </outline>
</glyph>
<glyph name="J" format="2">
  <advance width="297.0"/>
  <unicode hex="004A"/>
  <anchor x="196.0" y="50.0" name="bottom"/>
  <anchor x="196.0" y="550.0" name="top"/>
  <outline>
    <contour>
      <point x="142.0" y="50.0" type="line"/>
      <point x="287.0" y="196.0" type="line"/>
      <point x="273.0" y="210.0" type="line"/>
      <point x="130.0" y="64.0" type="line"/>
    </contour>
    <contour>
      <point x="5.0" y="50.0" type="line"/>
      <point x="142.0" y="50.0" type="line"/>
      <point x="144.0" y="70.0" type="line"/>
      <point x="5.0" y="70.0" type="line"/>
    </contour>
    <contour>
      <point x="5.0" y="50.0" type="line"/>
      <point x="25.0" y="50.0" type="line"/>
      <point x="25.0" y="242.0" type="line"/>
      <point x="5.0" y="242.0" type="line"/>
    </contour>
    <contour>
      <point x="25.0" y="54.0" type="line"/>
      <point x="151.0" y="101.0" type="line"/>
      <point x="137.0" y="112.0" type="line"/>
      <point x="13.0" y="70.0" type="line"/>
    </contour>
    <contour>
      <point x="132.0" y="59.0" type="line"/>
      <point x="149.0" y="68.0" type="line"/>
      <point x="148.0" y="105.0" type="line"/>
      <point x="131.0" y="96.0" type="line"/>
    </contour>
    <contour>
      <point x="6.0" y="224.0" type="line"/>
      <point x="55.0" y="224.0" type="line"/>
      <point x="55.0" y="242.0" type="line"/>
      <point x="6.0" y="242.0" type="line"/>
    </contour>
    <contour>
      <point x="133.0" y="93.0" type="line"/>
      <point x="151.0" y="102.0" type="line"/>
      <point x="59.0" y="241.0" type="line"/>
      <point x="41.0" y="232.0" type="line"/>
    </contour>
    <contour>
      <point x="53.0" y="219.0" type="line"/>
      <point x="86.0" y="258.0" type="line"/>
      <point x="76.0" y="275.0" type="line"/>
      <point x="43.0" y="238.0" type="line"/>
    </contour>
    <contour>
      <point x="146.0" y="94.0" type="line"/>
      <point x="231.0" y="198.0" type="line"/>
      <point x="217.0" y="212.0" type="line"/>
      <point x="132.0" y="108.0" type="line"/>
    </contour>
    <contour>
      <point x="212.0" y="196.0" type="line"/>
      <point x="220.0" y="213.0" type="line"/>
      <point x="74.0" y="279.0" type="line"/>
      <point x="68.0" y="262.0" type="line"/>
    </contour>
    <contour>
      <point x="217.0" y="193.0" type="line"/>
      <point x="281.0" y="190.0" type="line"/>
      <point x="287.0" y="209.0" type="line"/>
      <point x="223.0" y="212.0" type="line"/>
    </contour>
    <contour>
      <point x="68.0" y="261.0" type="line"/>
      <point x="88.0" y="261.0" type="line"/>
      <point x="88.0" y="550.0" type="line"/>
      <point x="68.0" y="550.0" type="line"/>
    </contour>
    <contour>
      <point x="211.0" y="198.0" type="line"/>
      <point x="231.0" y="198.0" type="line"/>
      <point x="231.0" y="397.0" type="line"/>
      <point x="211.0" y="397.0" type="line"/>
    </contour>
    <contour>
      <point x="267.0" y="196.0" type="line"/>
      <point x="287.0" y="196.0" type="line"/>
      <point x="287.0" y="550.0" type="line"/>
      <point x="267.0" y="550.0" type="line"/>
    </contour>
    <contour>
      <point x="212.0" y="386.0" type="line"/>
      <point x="227.0" y="396.0" type="line"/>
      <point x="91.0" y="542.0" type="line"/>
      <point x="71.0" y="531.0" type="line"/>
    </contour>
    <contour>
      <point x="72.0" y="530.0" type="line"/>
      <point x="284.0" y="530.0" type="line"/>
      <point x="284.0" y="550.0" type="line"/>
      <point x="72.0" y="550.0" type="line"/>
    </contour>
    <contour>
      <point x="227.0" y="385.0" type="line"/>
      <point x="282.0" y="531.0" type="line"/>
      <point x="262.0" y="536.0" type="line"/>
      <point x="209.0" y="392.0" type="line"/>
    </contour>
  </outline>
</glyph>
<glyph name="N" format="2">
  <advance width="578.0"/>
  <unicode hex="004E"/>
  <anchor x="289.0" y="50.0" name="bottom"/>
  <anchor x="289.0" y="550.0" name="top"/>
  <outline>
    <contour>
      <point x="10.0" y="50.0" type="line"/>
      <point x="30.0" y="50.0" type="line"/>
      <point x="30.0" y="550.0" type="line"/>
      <point x="10.0" y="550.0" type="line"/>
    </contour>
    <contour>
      <point x="167.0" y="50.0" type="line"/>
      <point x="187.0" y="50.0" type="line"/>
      <point x="187.0" y="416.0" type="line"/>
      <point x="167.0" y="502.0" type="line"/>
    </contour>
    <contour>
      <point x="548.0" y="50.0" type="line"/>
      <point x="568.0" y="50.0" type="line"/>
      <point x="568.0" y="550.0" type="line"/>
      <point x="548.0" y="550.0" type="line"/>
    </contour>
    <contour>
      <point x="510.0" y="102.0" type="line"/>
      <point x="530.0" y="86.0" type="line"/>
      <point x="530.0" y="461.0" type="line"/>
      <point x="510.0" y="461.0" type="line"/>
    </contour>
    <contour>
      <point x="552.0" y="68.0" type="line"/>
      <point x="562.0" y="84.0" type="line"/>
      <point x="505.0" y="104.0" type="line"/>
      <point x="495.0" y="88.0" type="line"/>
    </contour>
    <contour>
      <point x="299.0" y="63.0" type="line"/>
      <point x="522.0" y="88.0" type="line"/>
      <point x="505.0" y="104.0" type="line"/>
      <point x="289.0" y="79.0" type="line"/>
    </contour>
    <contour>
      <point x="24.0" y="59.0" type="line"/>
      <point x="150.0" y="82.0" type="line"/>
      <point x="137.0" y="95.0" type="line"/>
      <point x="11.0" y="72.0" type="line"/>
    </contour>
    <contour>
      <point x="166.0" y="59.0" type="line"/>
      <point x="178.0" y="73.0" type="line"/>
      <point x="153.0" y="100.0" type="line"/>
      <point x="139.0" y="86.0" type="line"/>
    </contour>
    <contour>
      <point x="287.0" y="50.0" type="line"/>
      <point x="566.0" y="50.0" type="line"/>
      <point x="566.0" y="70.0" type="line"/>
      <point x="287.0" y="70.0" type="line"/>
    </contour>
    <contour>
      <point x="286.0" y="50.0" type="line"/>
      <point x="305.0" y="58.0" type="line"/>
      <point x="160.0" y="539.0" type="line"/>
      <point x="142.0" y="531.0" type="line"/>
    </contour>
    <contour>
      <point x="11.0" y="50.0" type="line"/>
      <point x="187.0" y="50.0" type="line"/>
      <point x="187.0" y="70.0" type="line"/>
      <point x="11.0" y="70.0" type="line"/>
    </contour>
    <contour>
      <point x="10.0" y="530.0" type="line"/>
      <point x="334.0" y="530.0" type="line"/>
      <point x="334.0" y="550.0" type="line"/>
      <point x="10.0" y="550.0" type="line"/>
    </contour>
    <contour>
      <point x="312.0" y="417.0" type="line"/>
      <point x="337.0" y="531.0" type="line"/>
      <point x="324.0" y="547.0" type="line"/>
      <point x="299.0" y="433.0" type="line"/>
    </contour>
    <contour>
      <point x="413.0" y="268.0" type="line"/>
      <point x="411.0" y="328.0" type="line"/>
      <point x="334.0" y="550.0" type="line"/>
      <point x="319.0" y="543.0" type="line"/>
    </contour>
    <contour>
      <point x="397.0" y="179.0" type="line"/>
      <point x="417.0" y="104.0" type="line"/>
      <point x="417.0" y="550.0" type="line"/>
      <point x="397.0" y="550.0" type="line"/>
    </contour>
    <contour>
      <point x="133.0" y="86.0" type="line"/>
      <point x="153.0" y="93.0" type="line"/>
      <point x="153.0" y="535.0" type="line"/>
      <point x="133.0" y="535.0" type="line"/>
    </contour>
    <contour>
      <point x="397.0" y="530.0" type="line"/>
      <point x="568.0" y="530.0" type="line"/>
      <point x="568.0" y="550.0" type="line"/>
      <point x="397.0" y="550.0" type="line"/>
    </contour>
    <contour>
      <point x="526.0" y="437.0" type="line"/>
      <point x="552.0" y="534.0" type="line"/>
      <point x="536.0" y="545.0" type="line"/>
      <point x="512.0" y="451.0" type="line"/>
    </contour>
    <contour>
      <point x="412.0" y="76.0" type="line"/>
      <point x="432.0" y="80.0" type="line"/>
      <point x="310.0" y="437.0" type="line"/>
      <point x="292.0" y="429.0" type="line"/>
    </contour>
    <contour>
      <point x="301.0" y="418.0" type="line"/>
      <point x="312.0" y="433.0" type="line"/>
      <point x="184.0" y="546.0" type="line"/>
      <point x="173.0" y="531.0" type="line"/>
    </contour>
    <contour>
      <point x="517.0" y="438.0" type="line"/>
      <point x="527.0" y="456.0" type="line"/>
      <point x="412.0" y="543.0" type="line"/>
      <point x="399.0" y="528.0" type="line"/>
    </contour>
  </outline>
</glyph>
<glyph name="O" format="2">
  <advance width="490.0"/>
  <unicode hex="004F"/>
  <anchor x="240.0" y="0.0" name="bottom"/>
  <anchor x="240.0" y="300.0" name="center"/>
  <anchor x="340.0" y="68.0" name="ogonek"/>
  <anchor x="260.0" y="550.0" name="top"/>
  <anchor x="20.0" y="550.0" name="topleft"/>
  <anchor x="460.0" y="550.0" name="topright"/>
  <outline>
    <contour>
      <point x="155.0" y="50.0" type="line"/>
      <point x="170.0" y="65.0" type="line"/>
      <point x="20.0" y="195.0" type="line"/>
      <point x="5.0" y="180.0" type="line"/>
    </contour>
    <contour>
      <point x="25.0" y="176.0" type="line"/>
      <point x="183.0" y="188.0" type="line"/>
      <point x="177.0" y="206.0" type="line"/>
      <point x="19.0" y="194.0" type="line"/>
    </contour>
    <contour>
      <point x="167.0" y="59.0" type="line"/>
      <point x="255.0" y="93.0" type="line"/>
      <point x="239.0" y="103.0" type="line"/>
      <point x="151.0" y="69.0" type="line"/>
    </contour>
    <contour>
      <point x="155.0" y="50.0" type="line"/>
      <point x="348.0" y="50.0" type="line"/>
      <point x="348.0" y="68.0" type="line"/>
      <point x="155.0" y="68.0" type="line"/>
    </contour>
    <contour>
      <point x="240.0" y="88.0" type="line"/>
      <point x="245.0" y="105.0" type="line"/>
      <point x="184.0" y="209.0" type="line"/>
      <point x="170.0" y="195.0" type="line"/>
    </contour>
    <contour>
      <point x="5.0" y="180.0" type="line"/>
      <point x="25.0" y="180.0" type="line"/>
      <point x="25.0" y="410.0" type="line"/>
      <point x="5.0" y="410.0" type="line"/>
    </contour>
    <contour>
      <point x="185.0" y="191.0" type="line"/>
      <point x="232.0" y="241.0" type="line"/>
      <point x="226.0" y="257.0" type="line"/>
      <point x="179.0" y="207.0" type="line"/>
    </contour>
    <contour>
      <point x="240.0" y="88.0" type="line"/>
      <point x="365.0" y="88.0" type="line"/>
      <point x="365.0" y="106.0" type="line"/>
      <point x="240.0" y="106.0" type="line"/>
    </contour>
    <contour>
      <point x="254.0" y="97.0" type="line"/>
      <point x="261.0" y="217.0" type="line"/>
      <point x="244.0" y="227.0" type="line"/>
      <point x="234.0" y="98.0" type="line"/>
    </contour>
    <contour>
      <point x="323.0" y="59.0" type="line"/>
      <point x="345.0" y="68.0" type="line"/>
      <point x="376.0" y="102.0" type="line"/>
      <point x="354.0" y="93.0" type="line"/>
    </contour>
    <contour>
      <point x="170.0" y="195.0" type="line"/>
      <point x="191.0" y="195.0" type="line"/>
      <point x="191.0" y="335.0" type="line"/>
      <point x="170.0" y="335.0" type="line"/>
    </contour>
    <contour>
      <point x="247.0" y="209.0" type="line"/>
      <point x="261.0" y="223.0" type="line"/>
      <point x="229.0" y="254.0" type="line"/>
      <point x="215.0" y="240.0" type="line"/>
    </contour>
    <contour>
      <point x="250.0" y="209.0" type="line"/>
      <point x="273.0" y="209.0" type="line"/>
      <point x="273.0" y="227.0" type="line"/>
      <point x="250.0" y="227.0" type="line"/>
    </contour>
    <contour>
      <point x="359.0" y="88.0" type="line"/>
      <point x="372.0" y="98.0" type="line"/>
      <point x="273.0" y="227.0" type="line"/>
      <point x="260.0" y="217.0" type="line"/>
    </contour>
    <contour>
      <point x="283.0" y="209.0" type="line"/>
      <point x="305.0" y="240.0" type="line"/>
      <point x="291.0" y="254.0" type="line"/>
      <point x="269.0" y="223.0" type="line"/>
    </contour>
    <contour>
      <point x="177.0" y="324.0" type="line"/>
      <point x="183.0" y="341.0" type="line"/>
      <point x="25.0" y="413.0" type="line"/>
      <point x="19.0" y="396.0" type="line"/>
    </contour>
    <contour>
      <point x="364.0" y="84.0" type="line"/>
      <point x="445.0" y="195.0" type="line"/>
      <point x="431.0" y="209.0" type="line"/>
      <point x="350.0" y="98.0" type="line"/>
    </contour>
    <contour>
      <point x="215.0" y="240.0" type="line"/>
      <point x="235.0" y="240.0" type="line"/>
      <point x="235.0" y="362.0" type="line"/>
      <point x="215.0" y="362.0" type="line"/>
    </contour>
    <contour>
      <point x="348.0" y="50.0" type="line"/>
      <point x="485.0" y="170.0" type="line"/>
      <point x="471.0" y="184.0" type="line"/>
      <point x="334.0" y="64.0" type="line"/>
    </contour>
    <contour>
      <point x="430.0" y="190.0" type="line"/>
      <point x="436.0" y="207.0" type="line"/>
      <point x="291.0" y="254.0" type="line"/>
      <point x="285.0" y="237.0" type="line"/>
    </contour>
    <contour>
      <point x="231.0" y="349.0" type="line"/>
      <point x="225.0" y="370.0" type="line"/>
      <point x="190.0" y="337.0" type="line"/>
      <point x="184.0" y="318.0" type="line"/>
    </contour>
    <contour>
      <point x="285.0" y="240.0" type="line"/>
      <point x="305.0" y="240.0" type="line"/>
      <point x="305.0" y="368.0" type="line"/>
      <point x="285.0" y="368.0" type="line"/>
    </contour>
    <contour>
      <point x="19.0" y="396.0" type="line"/>
      <point x="149.0" y="536.0" type="line"/>
      <point x="135.0" y="550.0" type="line"/>
      <point x="5.0" y="410.0" type="line"/>
    </contour>
    <contour>
      <point x="184.0" y="321.0" type="line"/>
      <point x="254.0" y="412.0" type="line"/>
      <point x="240.0" y="426.0" type="line"/>
      <point x="170.0" y="335.0" type="line"/>
    </contour>
    <contour>
      <point x="465.0" y="166.0" type="line"/>
      <point x="475.0" y="188.0" type="line"/>
      <point x="442.0" y="210.0" type="line"/>
      <point x="432.0" y="189.0" type="line"/>
    </contour>
    <contour>
      <point x="229.0" y="348.0" type="line"/>
      <point x="261.0" y="372.0" type="line"/>
      <point x="247.0" y="386.0" type="line"/>
      <point x="215.0" y="362.0" type="line"/>
    </contour>
    <contour>
      <point x="249.0" y="368.0" type="line"/>
      <point x="279.0" y="368.0" type="line"/>
      <point x="279.0" y="386.0" type="line"/>
      <point x="249.0" y="386.0" type="line"/>
    </contour>
    <contour>
      <point x="244.0" y="368.0" type="line"/>
      <point x="262.0" y="378.0" type="line"/>
      <point x="254.0" y="420.0" type="line"/>
      <point x="235.0" y="410.0" type="line"/>
    </contour>
    <contour>
      <point x="291.0" y="356.0" type="line"/>
      <point x="305.0" y="363.0" type="line"/>
      <point x="283.0" y="386.0" type="line"/>
      <point x="269.0" y="372.0" type="line"/>
    </contour>
    <contour>
      <point x="425.0" y="195.0" type="line"/>
      <point x="445.0" y="195.0" type="line"/>
      <point x="445.0" y="335.0" type="line"/>
      <point x="425.0" y="335.0" type="line"/>
    </contour>
    <contour>
      <point x="233.0" y="414.0" type="line"/>
      <point x="256.0" y="420.0" type="line"/>
      <point x="151.0" y="540.0" type="line"/>
      <point x="128.0" y="534.0" type="line"/>
    </contour>
    <contour>
      <point x="273.0" y="368.0" type="line"/>
      <point x="375.0" y="410.0" type="line"/>
      <point x="360.0" y="422.0" type="line"/>
      <point x="261.0" y="380.0" type="line"/>
    </contour>
    <contour>
      <point x="291.0" y="361.0" type="line"/>
      <point x="431.0" y="321.0" type="line"/>
      <point x="425.0" y="338.0" type="line"/>
      <point x="285.0" y="380.0" type="line"/>
    </contour>
    <contour>
      <point x="240.0" y="408.0" type="line"/>
      <point x="367.0" y="408.0" type="line"/>
      <point x="367.0" y="426.0" type="line"/>
      <point x="240.0" y="426.0" type="line"/>
    </contour>
    <contour>
      <point x="465.0" y="170.0" type="line"/>
      <point x="485.0" y="170.0" type="line"/>
      <point x="485.0" y="410.0" type="line"/>
      <point x="465.0" y="410.0" type="line"/>
    </contour>
    <contour>
      <point x="431.0" y="321.0" type="line"/>
      <point x="445.0" y="335.0" type="line"/>
      <point x="365.0" y="426.0" type="line"/>
      <point x="351.0" y="412.0" type="line"/>
    </contour>
    <contour>
      <point x="135.0" y="532.0" type="line"/>
      <point x="365.0" y="532.0" type="line"/>
      <point x="365.0" y="550.0" type="line"/>
      <point x="135.0" y="550.0" type="line"/>
    </contour>
    <contour>
      <point x="376.0" y="409.0" type="line"/>
      <point x="366.0" y="530.0" type="line"/>
      <point x="349.0" y="536.0" type="line"/>
      <point x="357.0" y="415.0" type="line"/>
    </contour>
    <contour>
      <point x="440.0" y="322.0" type="line"/>
      <point x="473.0" y="394.0" type="line"/>
      <point x="463.0" y="414.0" type="line"/>
      <point x="430.0" y="342.0" type="line"/>
    </contour>
    <contour>
      <point x="471.0" y="396.0" type="line"/>
      <point x="485.0" y="410.0" type="line"/>
      <point x="365.0" y="550.0" type="line"/>
      <point x="351.0" y="536.0" type="line"/>
    </contour>
  </outline>
</glyph>
<glyph name="P" format="2">
  <advance width="505.0"/>
  <unicode hex="0050"/>
  <anchor x="235.0" y="50.0" name="bottom"/>
  <anchor x="243.0" y="550.0" name="top"/>
  <outline>
    <contour>
      <point x="10.0" y="548.0" type="line"/>
      <point x="10.0" y="50.0" type="line"/>
      <point x="30.0" y="50.0" type="line"/>
      <point x="30.0" y="548.0" type="line"/>
    </contour>
    <contour>
      <point x="212.0" y="206.0" type="line"/>
      <point x="212.0" y="50.0" type="line"/>
      <point x="232.0" y="50.0" type="line"/>
      <point x="232.0" y="206.0" type="line"/>
    </contour>
    <contour>
      <point x="225.0" y="70.0" type="line"/>
      <point x="15.0" y="70.0" type="line"/>
      <point x="14.0" y="50.0" type="line"/>
      <point x="225.0" y="50.0" type="line"/>
    </contour>
    <contour>
      <point x="353.0" y="214.0" type="line"/>
      <point x="212.0" y="214.0" type="line"/>
      <point x="212.0" y="195.0" type="line"/>
      <point x="353.0" y="195.0" type="line"/>
    </contour>
    <contour>
      <point x="361.0" y="549.0" type="line"/>
      <point x="10.0" y="549.0" type="line"/>
      <point x="10.0" y="529.0" type="line"/>
      <point x="361.0" y="529.0" type="line"/>
    </contour>
    <contour>
      <point x="209.0" y="392.0" type="line"/>
      <point x="209.0" y="334.0" type="line"/>
      <point x="230.0" y="334.0" type="line"/>
      <point x="230.0" y="392.0" type="line"/>
    </contour>
    <contour>
      <point x="451.0" y="375.0" type="line"/>
      <point x="451.0" y="292.0" type="line"/>
      <point x="470.0" y="290.0" type="line"/>
      <point x="470.0" y="373.0" type="line"/>
    </contour>
    <contour>
      <point x="27.0" y="54.0" type="line"/>
      <point x="171.0" y="111.0" type="line"/>
      <point x="158.0" y="124.0" type="line"/>
      <point x="14.0" y="67.0" type="line"/>
    </contour>
    <contour>
      <point x="220.0" y="53.0" type="line"/>
      <point x="229.0" y="66.0" type="line"/>
      <point x="170.0" y="124.0" type="line"/>
      <point x="155.0" y="111.0" type="line"/>
    </contour>
    <contour>
      <point x="154.0" y="107.0" type="line"/>
      <point x="174.0" y="107.0" type="line"/>
      <point x="174.0" y="421.0" type="line"/>
      <point x="154.0" y="424.0" type="line"/>
    </contour>
    <contour>
      <point x="216.0" y="379.0" type="line"/>
      <point x="224.0" y="393.0" type="line"/>
      <point x="177.0" y="421.0" type="line"/>
      <point x="159.0" y="408.0" type="line"/>
    </contour>
    <contour>
      <point x="221.0" y="194.0" type="line"/>
      <point x="244.0" y="209.0" type="line"/>
      <point x="173.0" y="248.0" type="line"/>
      <point x="164.0" y="230.0" type="line"/>
    </contour>
    <contour>
      <point x="363.0" y="416.0" type="line"/>
      <point x="383.0" y="415.0" type="line"/>
      <point x="366.0" y="540.0" type="line"/>
      <point x="345.0" y="539.0" type="line"/>
    </contour>
    <contour>
      <point x="354.0" y="424.0" type="line"/>
      <point x="463.0" y="357.0" type="line"/>
      <point x="470.0" y="373.0" type="line"/>
      <point x="371.0" y="434.0" type="line"/>
    </contour>
    <contour>
      <point x="348.0" y="537.0" type="line"/>
      <point x="491.0" y="434.0" type="line"/>
      <point x="500.0" y="446.0" type="line"/>
      <point x="361.0" y="549.0" type="line"/>
    </contour>
    <contour>
      <point x="465.0" y="360.0" type="line"/>
      <point x="492.0" y="438.0" type="line"/>
      <point x="482.0" y="453.0" type="line"/>
      <point x="454.0" y="376.0" type="line"/>
    </contour>
    <contour>
      <point x="482.0" y="446.0" type="line"/>
      <point x="482.0" y="309.0" type="line"/>
      <point x="500.0" y="309.0" type="line"/>
      <point x="500.0" y="446.0" type="line"/>
    </contour>
    <contour>
      <point x="340.0" y="212.0" type="line"/>
      <point x="353.0" y="195.0" type="line"/>
      <point x="500.0" y="309.0" type="line"/>
      <point x="487.0" y="324.0" type="line"/>
    </contour>
    <contour>
      <point x="473.0" y="304.0" type="line"/>
      <point x="462.0" y="282.0" type="line"/>
      <point x="482.0" y="312.0" type="line"/>
      <point x="492.0" y="324.0" type="line"/>
    </contour>
    <contour>
      <point x="362.0" y="235.0" type="line"/>
      <point x="344.0" y="202.0" type="line"/>
      <point x="364.0" y="204.0" type="line"/>
      <point x="386.0" y="238.0" type="line"/>
    </contour>
    <contour>
      <point x="359.0" y="233.0" type="line"/>
      <point x="377.0" y="224.0" type="line"/>
      <point x="473.0" y="292.0" type="line"/>
      <point x="459.0" y="310.0" type="line"/>
    </contour>
    <contour>
      <point x="375.0" y="245.0" type="line"/>
      <point x="171.0" y="245.0" type="line"/>
      <point x="171.0" y="226.0" type="line"/>
      <point x="375.0" y="226.0" type="line"/>
    </contour>
    <contour>
      <point x="361.0" y="430.0" type="line"/>
      <point x="158.0" y="430.0" type="line"/>
      <point x="158.0" y="411.0" type="line"/>
      <point x="361.0" y="411.0" type="line"/>
    </contour>
    <contour>
      <point x="211.0" y="347.0" type="line"/>
      <point x="161.0" y="250.0" type="line"/>
      <point x="172.0" y="234.0" type="line"/>
      <point x="228.0" y="341.0" type="line"/>
    </contour>
    <contour>
      <point x="277.0" y="335.0" type="line"/>
      <point x="364.0" y="234.0" type="line"/>
      <point x="385.0" y="237.0" type="line"/>
      <point x="290.0" y="345.0" type="line"/>
    </contour>
    <contour>
      <point x="290.0" y="350.0" type="line"/>
      <point x="218.0" y="350.0" type="line"/>
      <point x="218.0" y="333.0" type="line"/>
      <point x="290.0" y="332.0" type="line"/>
    </contour>
    <contour>
      <point x="291.0" y="397.0" type="line"/>
      <point x="210.0" y="397.0" type="line"/>
      <point x="210.0" y="378.0" type="line"/>
      <point x="286.0" y="378.0" type="line"/>
    </contour>
    <contour>
      <point x="258.0" y="384.0" type="line"/>
      <point x="291.0" y="383.0" type="line"/>
      <point x="384.0" y="416.0" type="line"/>
      <point x="368.0" y="425.0" type="line"/>
    </contour>
    <contour>
      <point x="303.0" y="375.0" type="line"/>
      <point x="303.0" y="355.0" type="line"/>
      <point x="322.0" y="355.0" type="line"/>
      <point x="322.0" y="374.0" type="line"/>
    </contour>
    <contour>
      <point x="317.0" y="358.0" type="line"/>
      <point x="467.0" y="367.0" type="line"/>
      <point x="467.0" y="384.0" type="line"/>
      <point x="312.0" y="371.0" type="line"/>
    </contour>
    <contour>
      <point x="315.0" y="363.0" type="line"/>
      <point x="298.0" y="353.0" type="line"/>
      <point x="466.0" y="286.0" type="line"/>
      <point x="474.0" y="302.0" type="line"/>
    </contour>
    <contour>
      <point x="276.0" y="345.0" type="line"/>
      <point x="289.0" y="332.0" type="line"/>
      <point x="325.0" y="352.0" type="line"/>
      <point x="311.0" y="367.0" type="line"/>
    </contour>
    <contour>
      <point x="267.0" y="380.0" type="line"/>
      <point x="312.0" y="360.0" type="line"/>
      <point x="331.0" y="369.0" type="line"/>
      <point x="284.0" y="397.0" type="line"/>
    </contour>
    <contour>
      <point x="159.0" y="408.0" type="line"/>
      <point x="173.0" y="428.0" type="line"/>
      <point x="32.0" y="540.0" type="line"/>
      <point x="16.0" y="527.0" type="line"/>
    </contour>
  </outline>
</glyph>
<glyph name="T" format="2">
  <advance width="490.0"/>
  <unicode hex="0054"/>
  <anchor x="245.0" y="50.0" name="bottom"/>
  <anchor x="245.0" y="300.0" name="center"/>
  <anchor x="245.0" y="550.0" name="top"/>
  <outline>
    <contour>
      <point x="164.0" y="62.0" type="line"/>
      <point x="299.0" y="102.0" type="line"/>
      <point x="286.0" y="117.0" type="line"/>
      <point x="151.0" y="77.0" type="line"/>
    </contour>
    <contour>
      <point x="145.0" y="50.0" type="line"/>
      <point x="365.0" y="50.0" type="line"/>
      <point x="365.0" y="70.0" type="line"/>
      <point x="145.0" y="70.0" type="line"/>
    </contour>
    <contour>
      <point x="145.0" y="50.0" type="line"/>
      <point x="165.0" y="50.0" type="line"/>
      <point x="165.0" y="330.0" type="line"/>
      <point x="145.0" y="330.0" type="line"/>
    </contour>
    <contour>
      <point x="348.0" y="61.0" type="line"/>
      <point x="361.0" y="76.0" type="line"/>
      <point x="303.0" y="117.0" type="line"/>
      <point x="290.0" y="102.0" type="line"/>
    </contour>
    <contour>
      <point x="6.0" y="316.0" type="line"/>
      <point x="154.0" y="316.0" type="line"/>
      <point x="165.0" y="336.0" type="line"/>
      <point x="6.0" y="336.0" type="line"/>
    </contour>
    <contour>
      <point x="20.0" y="329.0" type="line"/>
      <point x="151.0" y="373.0" type="line"/>
      <point x="138.0" y="387.0" type="line"/>
      <point x="6.0" y="341.0" type="line"/>
    </contour>
    <contour>
      <point x="5.0" y="316.0" type="line"/>
      <point x="25.0" y="316.0" type="line"/>
      <point x="25.0" y="550.0" type="line"/>
      <point x="5.0" y="550.0" type="line"/>
    </contour>
    <contour>
      <point x="284.0" y="100.0" type="line"/>
      <point x="304.0" y="100.0" type="line"/>
      <point x="304.0" y="375.0" type="line"/>
      <point x="284.0" y="375.0" type="line"/>
    </contour>
    <contour>
      <point x="345.0" y="50.0" type="line"/>
      <point x="365.0" y="50.0" type="line"/>
      <point x="365.0" y="330.0" type="line"/>
      <point x="345.0" y="330.0" type="line"/>
    </contour>
    <contour>
      <point x="137.0" y="373.0" type="line"/>
      <point x="150.0" y="387.0" type="line"/>
      <point x="27.0" y="544.0" type="line"/>
      <point x="13.0" y="532.0" type="line"/>
    </contour>
    <contour>
      <point x="157.0" y="321.0" type="line"/>
      <point x="300.0" y="371.0" type="line"/>
      <point x="287.0" y="384.0" type="line"/>
      <point x="144.0" y="334.0" type="line"/>
    </contour>
    <contour>
      <point x="351.0" y="320.0" type="line"/>
      <point x="365.0" y="333.0" type="line"/>
      <point x="302.0" y="384.0" type="line"/>
      <point x="288.0" y="371.0" type="line"/>
    </contour>
    <contour>
      <point x="140.0" y="371.0" type="line"/>
      <point x="449.0" y="371.0" type="line"/>
      <point x="449.0" y="391.0" type="line"/>
      <point x="140.0" y="391.0" type="line"/>
    </contour>
    <contour>
      <point x="356.0" y="316.0" type="line"/>
      <point x="484.0" y="316.0" type="line"/>
      <point x="484.0" y="336.0" type="line"/>
      <point x="356.0" y="336.0" type="line"/>
    </contour>
    <contour>
      <point x="6.0" y="530.0" type="line"/>
      <point x="484.0" y="530.0" type="line"/>
      <point x="484.0" y="550.0" type="line"/>
      <point x="6.0" y="550.0" type="line"/>
    </contour>
    <contour>
      <point x="463.0" y="329.0" type="line"/>
      <point x="480.0" y="341.0" type="line"/>
      <point x="448.0" y="387.0" type="line"/>
      <point x="432.0" y="373.0" type="line"/>
    </contour>
    <contour>
      <point x="465.0" y="316.0" type="line"/>
      <point x="485.0" y="316.0" type="line"/>
      <point x="485.0" y="550.0" type="line"/>
      <point x="465.0" y="550.0" type="line"/>
    </contour>
    <contour>
      <point x="448.0" y="373.0" type="line"/>
      <point x="470.0" y="538.0" type="line"/>
      <point x="453.0" y="550.0" type="line"/>
      <point x="432.0" y="387.0" type="line"/>
    </contour>
  </outline>
</glyph>
<glyph name="questiondown" format="2">
  <advance width="401.0"/>
  <unicode hex="00BF"/>
  <outline>
    <contour>
      <point x="227.0" y="242.0" type="line"/>
      <point x="123.0" y="182.0" type="line"/>
      <point x="136.0" y="169.0" type="line"/>
      <point x="237.0" y="227.0" type="line"/>
    </contour>
    <contour>
      <point x="146.0" y="286.0" type="line"/>
      <point x="5.0" y="249.0" type="line"/>
      <point x="17.0" y="233.0" type="line"/>
      <point x="158.0" y="270.0" type="line"/>
    </contour>
    <contour>
      <point x="160.0" y="360.0" type="line"/>
      <point x="136.0" y="269.0" type="line"/>
      <point x="156.0" y="269.0" type="line"/>
      <point x="180.0" y="360.0" type="line"/>
    </contour>
    <contour>
      <point x="5.0" y="249.0" type="line"/>
      <point x="5.0" y="145.0" type="line"/>
      <point x="25.0" y="145.0" type="line"/>
      <point x="25.0" y="249.0" type="line"/>
    </contour>
    <contour>
      <point x="232.0" y="360.0" type="line"/>
      <point x="217.0" y="360.0" type="line"/>
      <point x="217.0" y="341.0" type="line"/>
      <point x="232.0" y="341.0" type="line"/>
    </contour>
    <contour>
      <point x="218.0" y="353.0" type="line"/>
      <point x="218.0" y="227.0" type="line"/>
      <point x="238.0" y="227.0" type="line"/>
      <point x="238.0" y="353.0" type="line"/>
    </contour>
    <contour>
      <point x="121.0" y="186.0" type="line"/>
      <point x="121.0" y="132.0" type="line"/>
      <point x="141.0" y="132.0" type="line"/>
      <point x="141.0" y="186.0" type="line"/>
    </contour>
    <contour>
      <point x="139.0" y="190.0" type="line"/>
      <point x="133.0" y="172.0" type="line"/>
      <point x="188.0" y="192.0" type="line"/>
      <point x="194.0" y="210.0" type="line"/>
    </contour>
    <contour>
      <point x="180.0" y="187.0" type="line"/>
      <point x="125.0" y="133.0" type="line"/>
      <point x="135.0" y="120.0" type="line"/>
      <point x="193.0" y="174.0" type="line"/>
    </contour>
    <contour>
      <point x="16.0" y="161.0" type="line"/>
      <point x="5.0" y="145.0" type="line"/>
      <point x="131.0" y="50.0" type="line"/>
      <point x="143.0" y="66.0" type="line"/>
    </contour>
    <contour>
      <point x="221.0" y="243.0" type="line"/>
      <point x="223.0" y="222.0" type="line"/>
      <point x="257.0" y="242.0" type="line"/>
      <point x="256.0" y="261.0" type="line"/>
    </contour>
    <contour>
      <point x="227.0" y="360.0" type="line"/>
      <point x="246.0" y="246.0" type="line"/>
      <point x="266.0" y="245.0" type="line"/>
      <point x="247.0" y="360.0" type="line"/>
    </contour>
    <contour>
      <point x="173.0" y="206.0" type="line"/>
      <point x="173.0" y="172.0" type="line"/>
      <point x="193.0" y="172.0" type="line"/>
      <point x="193.0" y="206.0" type="line"/>
    </contour>
    <contour>
      <point x="133.0" y="147.0" type="line"/>
      <point x="121.0" y="132.0" type="line"/>
      <point x="191.0" y="73.0" type="line"/>
      <point x="203.0" y="88.0" type="line"/>
    </contour>
    <contour>
      <point x="256.0" y="261.0" type="line"/>
      <point x="173.0" y="203.0" type="line"/>
      <point x="183.0" y="187.0" type="line"/>
      <point x="266.0" y="245.0" type="line"/>
    </contour>
    <contour>
      <point x="186.0" y="188.0" type="line"/>
      <point x="175.0" y="173.0" type="line"/>
      <point x="201.0" y="159.0" type="line"/>
      <point x="211.0" y="174.0" type="line"/>
    </contour>
    <contour>
      <point x="201.0" y="180.0" type="line"/>
      <point x="201.0" y="159.0" type="line"/>
      <point x="231.0" y="159.0" type="line"/>
      <point x="231.0" y="180.0" type="line"/>
    </contour>
    <contour>
      <point x="242.0" y="194.0" type="line"/>
      <point x="242.0" y="176.0" type="line"/>
      <point x="262.0" y="176.0" type="line"/>
      <point x="262.0" y="194.0" type="line"/>
    </contour>
    <contour>
      <point x="251.0" y="192.0" type="line"/>
      <point x="222.0" y="176.0" type="line"/>
      <point x="233.0" y="161.0" type="line"/>
      <point x="262.0" y="177.0" type="line"/>
    </contour>
    <contour>
      <point x="214.0" y="169.0" type="line"/>
      <point x="293.0" y="79.0" type="line"/>
      <point x="310.0" y="88.0" type="line"/>
      <point x="233.0" y="176.0" type="line"/>
    </contour>
    <contour>
      <point x="193.0" y="91.0" type="line"/>
      <point x="189.0" y="73.0" type="line"/>
      <point x="307.0" y="73.0" type="line"/>
      <point x="297.0" y="91.0" type="line"/>
    </contour>
    <contour>
      <point x="242.0" y="209.0" type="line"/>
      <point x="242.0" y="189.0" type="line"/>
      <point x="396.0" y="189.0" type="line"/>
      <point x="396.0" y="209.0" type="line"/>
    </contour>
    <contour>
      <point x="362.0" y="147.0" type="line"/>
      <point x="291.0" y="87.0" type="line"/>
      <point x="303.0" y="71.0" type="line"/>
      <point x="376.0" y="135.0" type="line"/>
    </contour>
    <contour>
      <point x="131.0" y="70.0" type="line"/>
      <point x="131.0" y="50.0" type="line"/>
      <point x="277.0" y="50.0" type="line"/>
      <point x="274.0" y="70.0" type="line"/>
    </contour>
    <contour>
      <point x="363.0" y="129.0" type="line"/>
      <point x="384.0" y="143.0" type="line"/>
      <point x="381.0" y="159.0" type="line"/>
      <point x="364.0" y="147.0" type="line"/>
    </contour>
    <contour>
      <point x="312.0" y="84.0" type="line"/>
      <point x="293.0" y="78.0" type="line"/>
      <point x="265.0" y="55.0" type="line"/>
      <point x="283.0" y="61.0" type="line"/>
    </contour>
    <contour>
      <point x="376.0" y="189.0" type="line"/>
      <point x="376.0" y="147.0" type="line"/>
      <point x="396.0" y="144.0" type="line"/>
      <point x="396.0" y="189.0" type="line"/>
    </contour>
    <contour>
      <point x="386.0" y="162.0" type="line"/>
      <point x="264.0" y="65.0" type="line"/>
      <point x="277.0" y="50.0" type="line"/>
      <point x="396.0" y="144.0" type="line"/>
    </contour>
    <contour>
      <point x="374.0" y="145.0" type="line"/>
      <point x="256.0" y="193.0" type="line"/>
      <point x="249.0" y="177.0" type="line"/>
      <point x="366.0" y="129.0" type="line"/>
    </contour>
    <contour>
      <point x="128.0" y="138.0" type="line"/>
      <point x="11.0" y="161.0" type="line"/>
      <point x="15.0" y="143.0" type="line"/>
      <point x="145.0" y="114.0" type="line"/>
    </contour>
    <contour>
      <point x="18.0" y="251.0" type="line"/>
      <point x="12.0" y="234.0" type="line"/>
      <point x="132.0" y="171.0" type="line"/>
      <point x="139.0" y="190.0" type="line"/>
    </contour>
    <contour>
      <point x="144.0" y="286.0" type="line"/>
      <point x="138.0" y="268.0" type="line"/>
      <point x="217.0" y="225.0" type="line"/>
      <point x="223.0" y="242.0" type="line"/>
    </contour>
    <contour>
      <point x="229.0" y="360.0" type="line"/>
      <point x="164.0" y="360.0" type="line"/>
      <point x="164.0" y="341.0" type="line"/>
      <point x="229.0" y="341.0" type="line"/>
    </contour>
    <contour>
      <point x="286.0" y="550.0" type="line"/>
      <point x="121.0" y="550.0" type="line"/>
      <point x="121.0" y="532.0" type="line"/>
      <point x="286.0" y="532.0" type="line"/>
    </contour>
    <contour>
      <point x="272.0" y="550.0" type="line"/>
      <point x="246.0" y="429.0" type="line"/>
      <point x="258.0" y="409.0" type="line"/>
      <point x="286.0" y="536.0" type="line"/>
    </contour>
    <contour>
      <point x="135.0" y="550.0" type="line"/>
      <point x="121.0" y="536.0" type="line"/>
      <point x="243.0" y="408.0" type="line"/>
      <point x="252.0" y="428.0" type="line"/>
    </contour>
    <contour>
      <point x="286.0" y="550.0" type="line"/>
      <point x="266.0" y="550.0" type="line"/>
      <point x="266.0" y="375.0" type="line"/>
      <point x="286.0" y="375.0" type="line"/>
    </contour>
    <contour>
      <point x="258.0" y="424.0" type="line"/>
      <point x="242.0" y="424.0" type="line"/>
      <point x="242.0" y="407.0" type="line"/>
      <point x="258.0" y="407.0" type="line"/>
    </contour>
    <contour>
      <point x="141.0" y="550.0" type="line"/>
      <point x="121.0" y="550.0" type="line"/>
      <point x="121.0" y="375.0" type="line"/>
      <point x="141.0" y="375.0" type="line"/>
    </contour>
    <contour>
      <point x="257.0" y="422.0" type="line"/>
      <point x="245.0" y="402.0" type="line"/>
      <point x="272.0" y="375.0" type="line"/>
      <point x="286.0" y="389.0" type="line"/>
    </contour>
    <contour>
      <point x="283.0" y="393.0" type="line"/>
      <point x="121.0" y="393.0" type="line"/>
      <point x="121.0" y="375.0" type="line"/>
      <point x="283.0" y="375.0" type="line"/>
    </contour>
    <contour>
      <point x="243.0" y="422.0" type="line"/>
      <point x="122.0" y="389.0" type="line"/>
      <point x="136.0" y="375.0" type="line"/>
      <point x="252.0" y="402.0" type="line"/>
    </contour>
    <contour>
      <point x="191.0" y="171.0" type="line"/>
      <point x="184.0" y="84.0" type="line"/>
      <point x="202.0" y="78.0" type="line"/>
      <point x="210.0" y="171.0" type="line"/>
    </contour>
    <contour>
      <point x="191.0" y="88.0" type="line"/>
      <point x="118.0" y="65.0" type="line"/>
      <point x="136.0" y="59.0" type="line"/>
      <point x="210.0" y="78.0" type="line"/>
    </contour>
  </outline>
</glyph>
<glyph name="Eth" format="2">
  <advance width="555.0"/>
  <unicode hex="00D0"/>
  <outline>
    <contour>
      <point x="239.0" y="378.0" type="line"/>
      <point x="252.0" y="394.0" type="line"/>
      <point x="201.0" y="424.0" type="line"/>
      <point x="191.0" y="407.0" type="line"/>
    </contour>
    <contour>
      <point x="55.0" y="57.0" type="line"/>
      <point x="195.0" y="105.0" type="line"/>
      <point x="181.0" y="118.0" type="line"/>
      <point x="36.0" y="66.0" type="line"/>
    </contour>
    <contour>
      <point x="51.0" y="50.0" type="line"/>
      <point x="402.0" y="50.0" type="line"/>
      <point x="407.0" y="70.0" type="line"/>
      <point x="51.0" y="70.0" type="line"/>
    </contour>
    <contour>
      <point x="33.0" y="355.0" type="line"/>
      <point x="52.0" y="355.0" type="line"/>
      <point x="52.0" y="550.0" type="line"/>
      <point x="33.0" y="550.0" type="line"/>
    </contour>
    <contour>
      <point x="202.0" y="116.0" type="line"/>
      <point x="259.0" y="231.0" type="line"/>
      <point x="237.0" y="236.0" type="line"/>
      <point x="182.0" y="122.0" type="line"/>
    </contour>
    <contour>
      <point x="196.0" y="105.0" type="line"/>
      <point x="398.0" y="105.0" type="line"/>
      <point x="398.0" y="123.0" type="line"/>
      <point x="196.0" y="123.0" type="line"/>
    </contour>
    <contour>
      <point x="178.0" y="105.0" type="line"/>
      <point x="198.0" y="105.0" type="line"/>
      <point x="198.0" y="423.0" type="line"/>
      <point x="178.0" y="423.0" type="line"/>
    </contour>
    <contour>
      <point x="235.0" y="218.0" type="line"/>
      <point x="311.0" y="218.0" type="line"/>
      <point x="311.0" y="237.0" type="line"/>
      <point x="235.0" y="237.0" type="line"/>
    </contour>
    <contour>
      <point x="389.0" y="59.0" type="line"/>
      <point x="409.0" y="66.0" type="line"/>
      <point x="405.0" y="119.0" type="line"/>
      <point x="388.0" y="110.0" type="line"/>
    </contour>
    <contour>
      <point x="390.0" y="108.0" type="line"/>
      <point x="407.0" y="118.0" type="line"/>
      <point x="318.0" y="236.0" type="line"/>
      <point x="303.0" y="226.0" type="line"/>
    </contour>
    <contour>
      <point x="317.0" y="223.0" type="line"/>
      <point x="345.0" y="262.0" type="line"/>
      <point x="330.0" y="274.0" type="line"/>
      <point x="302.0" y="235.0" type="line"/>
    </contour>
    <contour>
      <point x="236.0" y="346.0" type="line"/>
      <point x="256.0" y="346.0" type="line"/>
      <point x="256.0" y="387.0" type="line"/>
      <point x="236.0" y="387.0" type="line"/>
    </contour>
    <contour>
      <point x="401.0" y="104.0" type="line"/>
      <point x="492.0" y="206.0" type="line"/>
      <point x="474.0" y="215.0" type="line"/>
      <point x="389.0" y="119.0" type="line"/>
    </contour>
    <contour>
      <point x="402.0" y="50.0" type="line"/>
      <point x="550.0" y="198.0" type="line"/>
      <point x="530.0" y="207.0" type="line"/>
      <point x="388.0" y="64.0" type="line"/>
    </contour>
    <contour>
      <point x="474.0" y="199.0" type="line"/>
      <point x="486.0" y="216.0" type="line"/>
      <point x="332.0" y="276.0" type="line"/>
      <point x="328.0" y="259.0" type="line"/>
    </contour>
    <contour>
      <point x="328.0" y="259.0" type="line"/>
      <point x="348.0" y="261.0" type="line"/>
      <point x="348.0" y="355.0" type="line"/>
      <point x="328.0" y="355.0" type="line"/>
    </contour>
    <contour>
      <point x="532.0" y="192.0" type="line"/>
      <point x="543.0" y="210.0" type="line"/>
      <point x="490.0" y="218.0" type="line"/>
      <point x="482.0" y="200.0" type="line"/>
    </contour>
    <contour>
      <point x="238.0" y="379.0" type="line"/>
      <point x="317.0" y="379.0" type="line"/>
      <point x="317.0" y="398.0" type="line"/>
      <point x="238.0" y="398.0" type="line"/>
    </contour>
    <contour>
      <point x="335.0" y="341.0" type="line"/>
      <point x="349.0" y="356.0" type="line"/>
      <point x="312.0" y="397.0" type="line"/>
      <point x="300.0" y="382.0" type="line"/>
    </contour>
    <contour>
      <point x="181.0" y="410.0" type="line"/>
      <point x="396.0" y="410.0" type="line"/>
      <point x="396.0" y="426.0" type="line"/>
      <point x="181.0" y="426.0" type="line"/>
    </contour>
    <contour>
      <point x="472.0" y="206.0" type="line"/>
      <point x="492.0" y="206.0" type="line"/>
      <point x="492.0" y="354.0" type="line"/>
      <point x="472.0" y="354.0" type="line"/>
    </contour>
    <contour>
      <point x="314.0" y="382.0" type="line"/>
      <point x="400.0" y="413.0" type="line"/>
      <point x="389.0" y="426.0" type="line"/>
      <point x="296.0" y="389.0" type="line"/>
    </contour>
    <contour>
      <point x="49.0" y="530.0" type="line"/>
      <point x="409.0" y="530.0" type="line"/>
      <point x="412.0" y="550.0" type="line"/>
      <point x="49.0" y="550.0" type="line"/>
    </contour>
    <contour>
      <point x="335.0" y="337.0" type="line"/>
      <point x="485.0" y="347.0" type="line"/>
      <point x="471.0" y="362.0" type="line"/>
      <point x="329.0" y="354.0" type="line"/>
    </contour>
    <contour>
      <point x="483.0" y="339.0" type="line"/>
      <point x="493.0" y="354.0" type="line"/>
      <point x="396.0" y="423.0" type="line"/>
      <point x="385.0" y="410.0" type="line"/>
    </contour>
    <contour>
      <point x="550.0" y="198.0" type="line"/>
      <point x="550.0" y="419.0" type="line"/>
      <point x="530.0" y="410.0" type="line"/>
      <point x="530.0" y="202.0" type="line"/>
    </contour>
    <contour>
      <point x="401.0" y="402.0" type="line"/>
      <point x="411.0" y="530.0" type="line"/>
      <point x="395.0" y="541.0" type="line"/>
      <point x="386.0" y="420.0" type="line"/>
    </contour>
    <contour>
      <point x="486.0" y="346.0" type="line"/>
      <point x="533.0" y="407.0" type="line"/>
      <point x="527.0" y="426.0" type="line"/>
      <point x="476.0" y="363.0" type="line"/>
    </contour>
    <contour>
      <point x="531.0" y="409.0" type="line"/>
      <point x="550.0" y="419.0" type="line"/>
      <point x="412.0" y="550.0" type="line"/>
      <point x="400.0" y="535.0" type="line"/>
    </contour>
    <contour>
      <point x="186.0" y="410.0" type="line"/>
      <point x="199.0" y="426.0" type="line"/>
      <point x="50.0" y="542.0" type="line"/>
      <point x="40.0" y="525.0" type="line"/>
    </contour>
    <contour>
      <point x="109.0" y="252.0" type="line"/>
      <point x="129.0" y="262.0" type="line"/>
      <point x="21.0" y="364.0" type="line"/>
      <point x="7.0" y="353.0" type="line"/>
    </contour>
    <contour>
      <point x="5.0" y="221.0" type="line"/>
      <point x="24.0" y="221.0" type="line"/>
      <point x="24.0" y="364.0" type="line"/>
      <point x="5.0" y="364.0" type="line"/>
    </contour>
    <contour>
      <point x="109.0" y="263.0" type="line"/>
      <point x="7.0" y="232.0" type="line"/>
      <point x="21.0" y="221.0" type="line"/>
      <point x="129.0" y="253.0" type="line"/>
    </contour>
    <contour>
      <point x="45.0" y="364.0" type="line"/>
      <point x="7.0" y="364.0" type="line"/>
      <point x="7.0" y="343.0" type="line"/>
      <point x="45.0" y="343.0" type="line"/>
    </contour>
    <contour>
      <point x="192.0" y="266.0" type="line"/>
      <point x="107.0" y="266.0" type="line"/>
      <point x="107.0" y="249.0" type="line"/>
      <point x="192.0" y="249.0" type="line"/>
    </contour>
    <contour>
      <point x="45.0" y="242.0" type="line"/>
      <point x="7.0" y="242.0" type="line"/>
      <point x="7.0" y="221.0" type="line"/>
      <point x="45.0" y="221.0" type="line"/>
    </contour>
    <contour>
      <point x="288.0" y="252.0" type="line"/>
      <point x="316.0" y="353.0" type="line"/>
      <point x="299.0" y="364.0" type="line"/>
      <point x="270.0" y="262.0" type="line"/>
    </contour>
    <contour>
      <point x="318.0" y="217.0" type="line"/>
      <point x="318.0" y="364.0" type="line"/>
      <point x="299.0" y="364.0" type="line"/>
      <point x="299.0" y="217.0" type="line"/>
    </contour>
    <contour>
      <point x="288.0" y="263.0" type="line"/>
      <point x="270.0" y="253.0" type="line"/>
      <point x="299.0" y="217.0" type="line"/>
      <point x="316.0" y="228.0" type="line"/>
    </contour>
    <contour>
      <point x="247.0" y="364.0" type="line"/>
      <point x="234.0" y="343.0" type="line"/>
      <point x="316.0" y="343.0" type="line"/>
      <point x="316.0" y="364.0" type="line"/>
    </contour>
    <contour>
      <point x="184.0" y="266.0" type="line"/>
      <point x="184.0" y="249.0" type="line"/>
      <point x="290.0" y="249.0" type="line"/>
      <point x="290.0" y="266.0" type="line"/>
    </contour>
    <contour>
      <point x="237.0" y="237.0" type="line"/>
      <point x="237.0" y="217.0" type="line"/>
      <point x="316.0" y="217.0" type="line"/>
      <point x="316.0" y="237.0" type="line"/>
    </contour>
    <contour>
      <point x="180.0" y="252.0" type="line"/>
      <point x="192.0" y="264.0" type="line"/>
      <point x="45.0" y="364.0" type="line"/>
      <point x="29.0" y="351.0" type="line"/>
    </contour>
    <contour>
      <point x="180.0" y="263.0" type="line"/>
      <point x="29.0" y="234.0" type="line"/>
      <point x="45.0" y="221.0" type="line"/>
      <point x="192.0" y="251.0" type="line"/>
    </contour>
    <contour>
      <point x="33.0" y="50.0" type="line"/>
      <point x="52.0" y="50.0" type="line"/>
      <point x="52.0" y="236.0" type="line"/>
      <point x="33.0" y="236.0" type="line"/>
    </contour>
    <contour>
      <point x="197.0" y="250.0" type="line"/>
      <point x="263.0" y="351.0" type="line"/>
      <point x="247.0" y="364.0" type="line"/>
      <point x="184.0" y="264.0" type="line"/>
    </contour>
    <contour>
      <point x="197.0" y="265.0" type="line"/>
      <point x="184.0" y="251.0" type="line"/>
      <point x="247.0" y="217.0" type="line"/>
      <point x="263.0" y="230.0" type="line"/>
    </contour>
    <contour>
      <point x="236.0" y="231.0" type="line"/>
      <point x="256.0" y="231.0" type="line"/>
      <point x="256.0" y="231.0" type="line"/>
      <point x="236.0" y="231.0" type="line"/>
    </contour>
  </outline>
</glyph>
<glyph name="Lcaron" format="2">
  <advance width="430.0"/>
  <unicode hex="013D"/>
  <anchor x="230.0" y="50.0" name="bottom"/>
  <anchor x="30.0" y="300.0" name="center"/>
  <anchor x="118.0" y="550.0" name="top"/>
  <anchor x="225.0" y="550.0" name="topright"/>
  <outline>
    <contour>
      <point x="275.0" y="460.0" type="line"/>
      <point x="292.0" y="460.0" type="line"/>
      <point x="292.0" y="544.0" type="line"/>
      <point x="275.0" y="544.0" type="line"/>
    </contour>
    <contour>
      <point x="278.0" y="542.0" type="line"/>
      <point x="329.0" y="487.0" type="line"/>
      <point x="343.0" y="495.0" type="line"/>
      <point x="292.0" y="550.0" type="line"/>
    </contour>
    <contour>
      <point x="278.0" y="460.0" type="line"/>
      <point x="329.0" y="460.0" type="line"/>
      <point x="333.0" y="476.0" type="line"/>
      <point x="283.0" y="476.0" type="line"/>
    </contour>
    <contour>
      <point x="320.0" y="467.0" type="line"/>
      <point x="336.0" y="467.0" type="line"/>
      <point x="347.0" y="500.0" type="line"/>
      <point x="331.0" y="500.0" type="line"/>
    </contour>
    <contour>
      <point x="275.0" y="537.0" type="line"/>
      <point x="372.0" y="537.0" type="line"/>
      <point x="372.0" y="550.0" type="line"/>
      <point x="275.0" y="550.0" type="line"/>
    </contour>
    <contour>
      <point x="315.0" y="460.0" type="line"/>
      <point x="334.0" y="460.0" type="line"/>
      <point x="389.0" y="550.0" type="line"/>
      <point x="369.0" y="550.0" type="line"/>
    </contour>
    <contour>
      <point x="329.0" y="493.0" type="line"/>
      <point x="338.0" y="482.0" type="line"/>
      <point x="371.0" y="540.0" type="line"/>
      <point x="360.0" y="550.0" type="line"/>
    </contour>
    <component base="L"/>
  </outline>
</glyph>
<glyph name="Lslash" format="2">
  <advance width="454.0"/>
  <unicode hex="0141"/>
  <outline>
    <contour>
      <point x="43.0" y="50.0" type="line"/>
      <point x="188.0" y="83.0" type="line"/>
      <point x="175.0" y="98.0" type="line"/>
      <point x="30.0" y="63.0" type="line"/>
    </contour>
    <contour>
      <point x="30.0" y="50.0" type="line"/>
      <point x="50.0" y="50.0" type="line"/>
      <point x="50.0" y="185.0" type="line"/>
      <point x="30.0" y="178.0" type="line"/>
    </contour>
    <contour>
      <point x="173.0" y="91.0" type="line"/>
      <point x="193.0" y="91.0" type="line"/>
      <point x="193.0" y="401.0" type="line"/>
      <point x="173.0" y="401.0" type="line"/>
    </contour>
    <contour>
      <point x="175.0" y="386.0" type="line"/>
      <point x="188.0" y="399.0" type="line"/>
      <point x="43.0" y="550.0" type="line"/>
      <point x="30.0" y="537.0" type="line"/>
    </contour>
    <contour>
      <point x="229.0" y="221.0" type="line"/>
      <point x="249.0" y="221.0" type="line"/>
      <point x="249.0" y="253.0" type="line"/>
      <point x="229.0" y="251.0" type="line"/>
    </contour>
    <contour>
      <point x="40.0" y="50.0" type="line"/>
      <point x="442.0" y="50.0" type="line"/>
      <point x="442.0" y="70.0" type="line"/>
      <point x="40.0" y="70.0" type="line"/>
    </contour>
    <contour>
      <point x="194.0" y="89.0" type="line"/>
      <point x="248.0" y="226.0" type="line"/>
      <point x="235.0" y="241.0" type="line"/>
      <point x="179.0" y="100.0" type="line"/>
    </contour>
    <contour>
      <point x="179.0" y="81.0" type="line"/>
      <point x="419.0" y="81.0" type="line"/>
      <point x="419.0" y="101.0" type="line"/>
      <point x="179.0" y="101.0" type="line"/>
    </contour>
    <contour>
      <point x="235.0" y="221.0" type="line"/>
      <point x="439.0" y="221.0" type="line"/>
      <point x="439.0" y="241.0" type="line"/>
      <point x="235.0" y="241.0" type="line"/>
    </contour>
    <contour>
      <point x="428.0" y="65.0" type="line"/>
      <point x="442.0" y="78.0" type="line"/>
      <point x="414.0" y="98.0" type="line"/>
      <point x="398.0" y="83.0" type="line"/>
    </contour>
    <contour>
      <point x="417.0" y="85.0" type="line"/>
      <point x="440.0" y="222.0" type="line"/>
      <point x="427.0" y="237.0" type="line"/>
      <point x="400.0" y="91.0" type="line"/>
    </contour>
    <contour>
      <point x="429.0" y="50.0" type="line"/>
      <point x="449.0" y="50.0" type="line"/>
      <point x="449.0" y="241.0" type="line"/>
      <point x="429.0" y="241.0" type="line"/>
    </contour>
    <contour>
      <point x="40.0" y="550.0" type="line"/>
      <point x="40.0" y="530.0" type="line"/>
      <point x="249.0" y="530.0" type="line"/>
      <point x="249.0" y="550.0" type="line"/>
    </contour>
    <contour>
      <point x="235.0" y="548.0" type="line"/>
      <point x="174.0" y="399.0" type="line"/>
      <point x="187.0" y="386.0" type="line"/>
      <point x="246.0" y="532.0" type="line"/>
    </contour>
    <contour>
      <point x="30.0" y="348.0" type="line"/>
      <point x="50.0" y="348.0" type="line"/>
      <point x="50.0" y="550.0" type="line"/>
      <point x="30.0" y="550.0" type="line"/>
    </contour>
    <contour>
      <point x="367.0" y="450.0" type="line"/>
      <point x="367.0" y="279.0" type="line"/>
      <point x="384.0" y="279.0" type="line"/>
      <point x="384.0" y="450.0" type="line"/>
    </contour>
    <contour>
      <point x="89.0" y="228.0" type="line"/>
      <point x="384.0" y="323.0" type="line"/>
      <point x="384.0" y="342.0" type="line"/>
      <point x="89.0" y="249.0" type="line"/>
    </contour>
    <contour>
      <point x="367.0" y="327.0" type="line"/>
      <point x="367.0" y="279.0" type="line"/>
      <point x="382.0" y="293.0" type="line"/>
      <point x="382.0" y="339.0" type="line"/>
    </contour>
    <contour>
      <point x="368.0" y="337.0" type="line"/>
      <point x="381.0" y="320.0" type="line"/>
      <point x="381.0" y="444.0" type="line"/>
      <point x="368.0" y="454.0" type="line"/>
    </contour>
    <contour>
      <point x="384.0" y="465.0" type="line"/>
      <point x="233.0" y="412.0" type="line"/>
      <point x="233.0" y="395.0" type="line"/>
      <point x="384.0" y="448.0" type="line"/>
    </contour>
    <contour>
      <point x="384.0" y="299.0" type="line"/>
      <point x="230.0" y="251.0" type="line"/>
      <point x="244.0" y="231.0" type="line"/>
      <point x="384.0" y="279.0" type="line"/>
    </contour>
    <contour>
      <point x="229.0" y="402.0" type="line"/>
      <point x="249.0" y="402.0" type="line"/>
      <point x="249.0" y="550.0" type="line"/>
      <point x="229.0" y="550.0" type="line"/>
    </contour>
    <contour>
      <point x="189.0" y="244.0" type="line"/>
      <point x="237.0" y="234.0" type="line"/>
      <point x="250.0" y="253.0" type="line"/>
      <point x="192.0" y="267.0" type="line"/>
    </contour>
    <contour>
      <point x="179.0" y="284.0" type="line"/>
      <point x="192.0" y="271.0" type="line"/>
      <point x="249.0" y="406.0" type="line"/>
      <point x="233.0" y="419.0" type="line"/>
    </contour>
    <contour>
      <point x="22.0" y="173.0" type="line"/>
      <point x="22.0" y="344.0" type="line"/>
      <point x="5.0" y="344.0" type="line"/>
      <point x="5.0" y="173.0" type="line"/>
    </contour>
    <contour>
      <point x="111.0" y="244.0" type="line"/>
      <point x="19.0" y="344.0" type="line"/>
      <point x="5.0" y="330.0" type="line"/>
      <point x="97.0" y="233.0" type="line"/>
    </contour>
    <contour>
      <point x="111.0" y="244.0" type="line"/>
      <point x="95.0" y="252.0" type="line"/>
      <point x="7.0" y="179.0" type="line"/>
      <point x="21.0" y="169.0" type="line"/>
    </contour>
    <contour>
      <point x="5.0" y="158.0" type="line"/>
      <point x="47.0" y="175.0" type="line"/>
      <point x="47.0" y="196.0" type="line"/>
      <point x="5.0" y="179.0" type="line"/>
    </contour>
    <contour>
      <point x="5.0" y="315.0" type="line"/>
      <point x="46.0" y="333.0" type="line"/>
      <point x="46.0" y="356.0" type="line"/>
      <point x="5.0" y="344.0" type="line"/>
    </contour>
    <contour>
      <point x="180.0" y="283.0" type="line"/>
      <point x="46.0" y="353.0" type="line"/>
      <point x="31.0" y="334.0" type="line"/>
      <point x="177.0" y="264.0" type="line"/>
    </contour>
    <contour>
      <point x="189.0" y="247.0" type="line"/>
      <point x="176.0" y="260.0" type="line"/>
      <point x="30.0" y="185.0" type="line"/>
      <point x="44.0" y="172.0" type="line"/>
    </contour>
  </outline>
</glyph>
<glyph name="OE" format="2">
  <advance width="720.0"/>
  <unicode hex="0152"/>
  <anchor x="505.0" y="0.0" name="bottom"/>
  <anchor x="693.0" y="10.0" name="ogonek"/>
  <anchor x="505.0" y="600.0" name="top"/>
  <anchor x="290.0" y="600.0" name="topleft"/>
  <outline>
    <contour>
      <point x="155.0" y="50.0" type="line"/>
      <point x="169.0" y="64.0" type="line"/>
      <point x="19.0" y="194.0" type="line"/>
      <point x="5.0" y="180.0" type="line"/>
    </contour>
    <contour>
      <point x="25.0" y="177.0" type="line"/>
      <point x="178.0" y="189.0" type="line"/>
      <point x="172.0" y="211.0" type="line"/>
      <point x="19.0" y="199.0" type="line"/>
    </contour>
    <contour>
      <point x="171.0" y="56.0" type="line"/>
      <point x="269.0" y="95.0" type="line"/>
      <point x="250.0" y="107.0" type="line"/>
      <point x="152.0" y="68.0" type="line"/>
    </contour>
    <contour>
      <point x="155.0" y="50.0" type="line"/>
      <point x="315.0" y="50.0" type="line"/>
      <point x="315.0" y="70.0" type="line"/>
      <point x="155.0" y="70.0" type="line"/>
    </contour>
    <contour>
      <point x="250.0" y="89.0" type="line"/>
      <point x="264.0" y="103.0" type="line"/>
      <point x="179.0" y="209.0" type="line"/>
      <point x="165.0" y="195.0" type="line"/>
    </contour>
    <contour>
      <point x="5.0" y="180.0" type="line"/>
      <point x="25.0" y="180.0" type="line"/>
      <point x="25.0" y="410.0" type="line"/>
      <point x="5.0" y="410.0" type="line"/>
    </contour>
    <contour>
      <point x="180.0" y="190.0" type="line"/>
      <point x="235.0" y="237.0" type="line"/>
      <point x="229.0" y="258.0" type="line"/>
      <point x="174.0" y="211.0" type="line"/>
    </contour>
    <contour>
      <point x="250.0" y="89.0" type="line"/>
      <point x="354.0" y="89.0" type="line"/>
      <point x="354.0" y="107.0" type="line"/>
      <point x="250.0" y="107.0" type="line"/>
    </contour>
    <contour>
      <point x="265.0" y="93.0" type="line"/>
      <point x="265.0" y="217.0" type="line"/>
      <point x="244.0" y="227.0" type="line"/>
      <point x="244.0" y="103.0" type="line"/>
    </contour>
    <contour>
      <point x="165.0" y="195.0" type="line"/>
      <point x="185.0" y="195.0" type="line"/>
      <point x="185.0" y="335.0" type="line"/>
      <point x="165.0" y="335.0" type="line"/>
    </contour>
    <contour>
      <point x="247.0" y="209.0" type="line"/>
      <point x="261.0" y="223.0" type="line"/>
      <point x="229.0" y="254.0" type="line"/>
      <point x="215.0" y="240.0" type="line"/>
    </contour>
    <contour>
      <point x="247.0" y="209.0" type="line"/>
      <point x="283.0" y="209.0" type="line"/>
      <point x="283.0" y="227.0" type="line"/>
      <point x="247.0" y="227.0" type="line"/>
    </contour>
    <contour>
      <point x="172.0" y="313.0" type="line"/>
      <point x="178.0" y="337.0" type="line"/>
      <point x="25.0" y="413.0" type="line"/>
      <point x="19.0" y="389.0" type="line"/>
    </contour>
    <contour>
      <point x="215.0" y="240.0" type="line"/>
      <point x="235.0" y="240.0" type="line"/>
      <point x="235.0" y="365.0" type="line"/>
      <point x="215.0" y="365.0" type="line"/>
    </contour>
    <contour>
      <point x="229.0" y="351.0" type="line"/>
      <point x="235.0" y="374.0" type="line"/>
      <point x="185.0" y="342.0" type="line"/>
      <point x="179.0" y="321.0" type="line"/>
    </contour>
    <contour>
      <point x="19.0" y="396.0" type="line"/>
      <point x="169.0" y="536.0" type="line"/>
      <point x="155.0" y="550.0" type="line"/>
      <point x="5.0" y="410.0" type="line"/>
    </contour>
    <contour>
      <point x="179.0" y="321.0" type="line"/>
      <point x="264.0" y="412.0" type="line"/>
      <point x="250.0" y="426.0" type="line"/>
      <point x="165.0" y="335.0" type="line"/>
    </contour>
    <contour>
      <point x="229.0" y="351.0" type="line"/>
      <point x="261.0" y="372.0" type="line"/>
      <point x="247.0" y="386.0" type="line"/>
      <point x="215.0" y="365.0" type="line"/>
    </contour>
    <contour>
      <point x="247.0" y="368.0" type="line"/>
      <point x="283.0" y="368.0" type="line"/>
      <point x="283.0" y="386.0" type="line"/>
      <point x="247.0" y="386.0" type="line"/>
    </contour>
    <contour>
      <point x="244.0" y="368.0" type="line"/>
      <point x="262.0" y="378.0" type="line"/>
      <point x="260.0" y="420.0" type="line"/>
      <point x="242.0" y="410.0" type="line"/>
    </contour>
    <contour>
      <point x="246.0" y="409.0" type="line"/>
      <point x="263.0" y="421.0" type="line"/>
      <point x="171.0" y="540.0" type="line"/>
      <point x="154.0" y="530.0" type="line"/>
    </contour>
    <contour>
      <point x="155.0" y="530.0" type="line"/>
      <point x="323.0" y="530.0" type="line"/>
      <point x="321.0" y="550.0" type="line"/>
      <point x="155.0" y="550.0" type="line"/>
    </contour>
    <contour>
      <point x="445.0" y="92.0" type="line"/>
      <point x="465.0" y="92.0" type="line"/>
      <point x="465.0" y="411.0" type="line"/>
      <point x="445.0" y="411.0" type="line"/>
    </contour>
    <contour>
      <point x="515.0" y="212.0" type="line"/>
      <point x="528.0" y="228.0" type="line"/>
      <point x="460.0" y="246.0" type="line"/>
      <point x="445.0" y="233.0" type="line"/>
    </contour>
    <contour>
      <point x="515.0" y="210.0" type="line"/>
      <point x="635.0" y="210.0" type="line"/>
      <point x="635.0" y="230.0" type="line"/>
      <point x="515.0" y="230.0" type="line"/>
    </contour>
    <contour>
      <point x="460.0" y="235.0" type="line"/>
      <point x="528.0" y="340.0" type="line"/>
      <point x="515.0" y="355.0" type="line"/>
      <point x="445.0" y="246.0" type="line"/>
    </contour>
    <contour>
      <point x="447.0" y="395.0" type="line"/>
      <point x="460.0" y="411.0" type="line"/>
      <point x="318.0" y="550.0" type="line"/>
      <point x="309.0" y="532.0" type="line"/>
    </contour>
    <contour>
      <point x="465.0" y="237.0" type="line"/>
      <point x="625.0" y="237.0" type="line"/>
      <point x="605.0" y="257.0" type="line"/>
      <point x="465.0" y="257.0" type="line"/>
    </contour>
    <contour>
      <point x="515.0" y="335.0" type="line"/>
      <point x="635.0" y="335.0" type="line"/>
      <point x="635.0" y="355.0" type="line"/>
      <point x="515.0" y="355.0" type="line"/>
    </contour>
    <contour>
      <point x="627.0" y="220.0" type="line"/>
      <point x="640.0" y="235.0" type="line"/>
      <point x="610.0" y="257.0" type="line"/>
      <point x="589.0" y="242.0" type="line"/>
    </contour>
    <contour>
      <point x="612.0" y="237.0" type="line"/>
      <point x="638.0" y="340.0" type="line"/>
      <point x="625.0" y="355.0" type="line"/>
      <point x="595.0" y="246.0" type="line"/>
    </contour>
    <contour>
      <point x="625.0" y="210.0" type="line"/>
      <point x="645.0" y="210.0" type="line"/>
      <point x="645.0" y="355.0" type="line"/>
      <point x="625.0" y="355.0" type="line"/>
    </contour>
    <contour>
      <point x="505.0" y="212.0" type="line"/>
      <point x="525.0" y="212.0" type="line"/>
      <point x="525.0" y="228.0" type="line"/>
      <point x="505.0" y="228.0" type="line"/>
    </contour>
    <contour>
      <point x="307.0" y="50.0" type="line"/>
      <point x="705.0" y="50.0" type="line"/>
      <point x="705.0" y="70.0" type="line"/>
      <point x="307.0" y="70.0" type="line"/>
    </contour>
    <contour>
      <point x="466.0" y="90.0" type="line"/>
      <point x="524.0" y="215.0" type="line"/>
      <point x="511.0" y="230.0" type="line"/>
      <point x="451.0" y="101.0" type="line"/>
    </contour>
    <contour>
      <point x="441.0" y="82.0" type="line"/>
      <point x="675.0" y="82.0" type="line"/>
      <point x="675.0" y="102.0" type="line"/>
      <point x="451.0" y="102.0" type="line"/>
    </contour>
    <contour>
      <point x="501.0" y="210.0" type="line"/>
      <point x="705.0" y="210.0" type="line"/>
      <point x="705.0" y="230.0" type="line"/>
      <point x="501.0" y="230.0" type="line"/>
    </contour>
    <contour>
      <point x="695.0" y="60.0" type="line"/>
      <point x="708.0" y="77.0" type="line"/>
      <point x="670.0" y="102.0" type="line"/>
      <point x="655.0" y="85.0" type="line"/>
    </contour>
    <contour>
      <point x="672.0" y="82.0" type="line"/>
      <point x="708.0" y="215.0" type="line"/>
      <point x="695.0" y="230.0" type="line"/>
      <point x="655.0" y="91.0" type="line"/>
    </contour>
    <contour>
      <point x="695.0" y="50.0" type="line"/>
      <point x="715.0" y="50.0" type="line"/>
      <point x="715.0" y="230.0" type="line"/>
      <point x="695.0" y="230.0" type="line"/>
    </contour>
    <contour>
      <point x="315.0" y="550.0" type="line"/>
      <point x="315.0" y="530.0" type="line"/>
      <point x="705.0" y="530.0" type="line"/>
      <point x="705.0" y="550.0" type="line"/>
    </contour>
    <contour>
      <point x="466.0" y="409.0" type="line"/>
      <point x="451.0" y="394.0" type="line"/>
      <point x="511.0" y="360.0" type="line"/>
      <point x="524.0" y="378.0" type="line"/>
    </contour>
    <contour>
      <point x="451.0" y="413.0" type="line"/>
      <point x="451.0" y="393.0" type="line"/>
      <point x="685.0" y="393.0" type="line"/>
      <point x="685.0" y="413.0" type="line"/>
    </contour>
    <contour>
      <point x="511.0" y="380.0" type="line"/>
      <point x="511.0" y="360.0" type="line"/>
      <point x="705.0" y="360.0" type="line"/>
      <point x="705.0" y="380.0" type="line"/>
    </contour>
    <contour>
      <point x="691.0" y="543.0" type="line"/>
      <point x="664.0" y="410.0" type="line"/>
      <point x="679.0" y="396.0" type="line"/>
      <point x="708.0" y="530.0" type="line"/>
    </contour>
    <contour>
      <point x="684.0" y="413.0" type="line"/>
      <point x="656.0" y="402.0" type="line"/>
      <point x="695.0" y="366.0" type="line"/>
      <point x="708.0" y="382.0" type="line"/>
    </contour>
    <contour>
      <point x="695.0" y="550.0" type="line"/>
      <point x="695.0" y="360.0" type="line"/>
      <point x="715.0" y="360.0" type="line"/>
      <point x="715.0" y="550.0" type="line"/>
    </contour>
    <contour>
      <point x="505.0" y="342.0" type="line"/>
      <point x="525.0" y="342.0" type="line"/>
      <point x="525.0" y="378.0" type="line"/>
      <point x="505.0" y="378.0" type="line"/>
    </contour>
    <contour>
      <point x="287.0" y="368.0" type="line"/>
      <point x="369.0" y="410.0" type="line"/>
      <point x="350.0" y="420.0" type="line"/>
      <point x="268.0" y="378.0" type="line"/>
    </contour>
    <contour>
      <point x="375.0" y="409.0" type="line"/>
      <point x="329.0" y="547.0" type="line"/>
      <point x="302.0" y="536.0" type="line"/>
      <point x="347.0" y="415.0" type="line"/>
    </contour>
    <contour>
      <point x="346.0" y="101.0" type="line"/>
      <point x="362.0" y="115.0" type="line"/>
      <point x="286.0" y="226.0" type="line"/>
      <point x="268.0" y="216.0" type="line"/>
    </contour>
    <contour>
      <point x="305.0" y="59.0" type="line"/>
      <point x="332.0" y="68.0" type="line"/>
      <point x="361.0" y="96.0" type="line"/>
      <point x="465.0" y="225.0" type="line"/>
      <point x="451.0" y="239.0" type="line"/>
      <point x="344.0" y="108.0" type="line"/>
    </contour>
    <contour>
      <point x="450.0" y="218.0" type="line"/>
      <point x="456.0" y="238.0" type="line"/>
      <point x="291.0" y="255.0" type="line"/>
      <point x="285.0" y="235.0" type="line"/>
    </contour>
    <contour>
      <point x="285.0" y="240.0" type="line"/>
      <point x="305.0" y="240.0" type="line"/>
      <point x="305.0" y="365.0" type="line"/>
      <point x="285.0" y="365.0" type="line"/>
    </contour>
    <contour>
      <point x="291.0" y="350.0" type="line"/>
      <point x="451.0" y="320.0" type="line"/>
      <point x="445.0" y="345.0" type="line"/>
      <point x="285.0" y="373.0" type="line"/>
    </contour>
    <contour>
      <point x="250.0" y="408.0" type="line"/>
      <point x="360.0" y="408.0" type="line"/>
      <point x="360.0" y="426.0" type="line"/>
      <point x="250.0" y="426.0" type="line"/>
    </contour>
    <contour>
      <point x="451.0" y="324.0" type="line"/>
      <point x="465.0" y="338.0" type="line"/>
      <point x="360.0" y="426.0" type="line"/>
      <point x="346.0" y="412.0" type="line"/>
    </contour>
    <contour>
      <point x="283.0" y="209.0" type="line"/>
      <point x="305.0" y="240.0" type="line"/>
      <point x="291.0" y="254.0" type="line"/>
      <point x="269.0" y="223.0" type="line"/>
    </contour>
    <contour>
      <point x="291.0" y="351.0" type="line"/>
      <point x="305.0" y="365.0" type="line"/>
      <point x="283.0" y="386.0" type="line"/>
      <point x="269.0" y="372.0" type="line"/>
    </contour>
    <contour>
      <point x="326.0" y="54.0" type="line"/>
      <point x="467.0" y="82.0" type="line"/>
      <point x="448.0" y="100.0" type="line"/>
      <point x="307.0" y="67.0" type="line"/>
    </contour>
  </outline>
</glyph>
<glyph name="quoteright" format="2">
  <advance width="192.0"/>
  <unicode hex="2019"/>
  <outline>
    <contour>
      <point x="30.0" y="408.0" type="line"/>
      <point x="162.0" y="408.0" type="line"/>
      <point x="162.0" y="422.0" type="line"/>
      <point x="30.0" y="422.0" type="line"/>
    </contour>
    <contour>
      <point x="41.0" y="408.0" type="line"/>
      <point x="138.0" y="428.0" type="line"/>
      <point x="130.0" y="444.0" type="line"/>
      <point x="30.0" y="419.0" type="line"/>
    </contour>
    <contour>
      <point x="150.0" y="408.0" type="line"/>
      <point x="162.0" y="419.0" type="line"/>
      <point x="140.0" y="445.0" type="line"/>
      <point x="133.0" y="429.0" type="line"/>
    </contour>
    <contour>
      <point x="30.0" y="408.0" type="line"/>
      <point x="46.0" y="408.0" type="line"/>
      <point x="46.0" y="550.0" type="line"/>
      <point x="30.0" y="550.0" type="line"/>
    </contour>
    <contour>
      <point x="130.0" y="432.0" type="line"/>
      <point x="141.0" y="432.0" type="line"/>
      <point x="141.0" y="446.0" type="line"/>
      <point x="130.0" y="446.0" type="line"/>
    </contour>
    <contour>
      <point x="146.0" y="408.0" type="line"/>
      <point x="162.0" y="408.0" type="line"/>
      <point x="162.0" y="550.0" type="line"/>
      <point x="146.0" y="550.0" type="line"/>
    </contour>
    <contour>
      <point x="131.0" y="434.0" type="line"/>
      <point x="138.0" y="450.0" type="line"/>
      <point x="41.0" y="550.0" type="line"/>
      <point x="30.0" y="538.0" type="line"/>
    </contour>
    <contour>
      <point x="32.0" y="535.0" type="line"/>
      <point x="162.0" y="535.0" type="line"/>
      <point x="162.0" y="550.0" type="line"/>
      <point x="32.0" y="550.0" type="line"/>
    </contour>
    <contour>
      <point x="140.0" y="434.0" type="line"/>
      <point x="161.0" y="538.0" type="line"/>
      <point x="150.0" y="550.0" type="line"/>
      <point x="133.0" y="450.0" type="line"/>
    </contour>
    <contour>
      <point x="30.0" y="306.0" type="line"/>
      <point x="46.0" y="306.0" type="line"/>
      <point x="46.0" y="370.0" type="line"/>
      <point x="30.0" y="372.0" type="line"/>
    </contour>
    <contour>
      <point x="40.0" y="360.0" type="line"/>
      <point x="93.0" y="408.0" type="line"/>
      <point x="79.0" y="419.0" type="line"/>
      <point x="30.0" y="372.0" type="line"/>
    </contour>
    <contour>
      <point x="42.0" y="296.0" type="line"/>
      <point x="162.0" y="408.0" type="line"/>
      <point x="151.0" y="420.0" type="line"/>
      <point x="30.0" y="307.0" type="line"/>
      <point x="30.0" y="296.0" type="line"/>
    </contour>
  </outline>
</glyph>
<glyph name="quotesinglbase" format="2">
  <advance width="192.0"/>
  <unicode hex="201A"/>
  <outline>
    <contour>
      <point x="30.0" y="107.0" type="line"/>
      <point x="162.0" y="107.0" type="line"/>
      <point x="162.0" y="121.0" type="line"/>
      <point x="30.0" y="121.0" type="line"/>
    </contour>
    <contour>
      <point x="41.0" y="107.0" type="line"/>
      <point x="138.0" y="127.0" type="line"/>
      <point x="130.0" y="143.0" type="line"/>
      <point x="30.0" y="118.0" type="line"/>
    </contour>
    <contour>
      <point x="150.0" y="107.0" type="line"/>
      <point x="162.0" y="118.0" type="line"/>
      <point x="140.0" y="144.0" type="line"/>
      <point x="133.0" y="128.0" type="line"/>
    </contour>
    <contour>
      <point x="30.0" y="107.0" type="line"/>
      <point x="46.0" y="107.0" type="line"/>
      <point x="46.0" y="249.0" type="line"/>
      <point x="30.0" y="249.0" type="line"/>
    </contour>
    <contour>
      <point x="130.0" y="131.0" type="line"/>
      <point x="141.0" y="131.0" type="line"/>
      <point x="141.0" y="145.0" type="line"/>
      <point x="130.0" y="145.0" type="line"/>
    </contour>
    <contour>
      <point x="146.0" y="107.0" type="line"/>
      <point x="162.0" y="107.0" type="line"/>
      <point x="162.0" y="249.0" type="line"/>
      <point x="146.0" y="249.0" type="line"/>
    </contour>
    <contour>
      <point x="131.0" y="133.0" type="line"/>
      <point x="138.0" y="149.0" type="line"/>
      <point x="41.0" y="249.0" type="line"/>
      <point x="30.0" y="237.0" type="line"/>
    </contour>
    <contour>
      <point x="32.0" y="234.0" type="line"/>
      <point x="162.0" y="234.0" type="line"/>
      <point x="162.0" y="249.0" type="line"/>
      <point x="32.0" y="249.0" type="line"/>
    </contour>
    <contour>
      <point x="140.0" y="133.0" type="line"/>
      <point x="161.0" y="237.0" type="line"/>
      <point x="150.0" y="249.0" type="line"/>
      <point x="133.0" y="149.0" type="line"/>
    </contour>
    <contour>
      <point x="30.0" y="5.0" type="line"/>
      <point x="46.0" y="5.0" type="line"/>
      <point x="46.0" y="69.0" type="line"/>
      <point x="30.0" y="71.0" type="line"/>
    </contour>
    <contour>
      <point x="40.0" y="59.0" type="line"/>
      <point x="93.0" y="107.0" type="line"/>
      <point x="79.0" y="118.0" type="line"/>
      <point x="30.0" y="71.0" type="line"/>
    </contour>
    <contour>
      <point x="42.0" y="-5.0" type="line"/>
      <point x="162.0" y="107.0" type="line"/>
      <point x="151.0" y="119.0" type="line"/>
      <point x="30.0" y="6.0" type="line"/>
      <point x="30.0" y="-5.0" type="line"/>
    </contour>
  </outline>
</glyph>
<glyph name="quotedblleft" format="2">
  <advance width="342.0"/>
  <unicode hex="201C"/>
  <outline>
    <contour>
      <point x="312.0" y="437.0" type="line"/>
      <point x="180.0" y="437.0" type="line"/>
      <point x="180.0" y="423.0" type="line"/>
      <point x="312.0" y="423.0" type="line"/>
    </contour>
    <contour>
      <point x="301.0" y="437.0" type="line"/>
      <point x="282.0" y="337.0" type="line"/>
      <point x="290.0" y="321.0" type="line"/>
      <point x="312.0" y="426.0" type="line"/>
    </contour>
    <contour>
      <point x="192.0" y="437.0" type="line"/>
      <point x="180.0" y="426.0" type="line"/>
      <point x="280.0" y="320.0" type="line"/>
      <point x="287.0" y="336.0" type="line"/>
    </contour>
    <contour>
      <point x="312.0" y="437.0" type="line"/>
      <point x="296.0" y="437.0" type="line"/>
      <point x="296.0" y="295.0" type="line"/>
      <point x="312.0" y="295.0" type="line"/>
    </contour>
    <contour>
      <point x="290.0" y="333.0" type="line"/>
      <point x="279.0" y="333.0" type="line"/>
      <point x="279.0" y="319.0" type="line"/>
      <point x="290.0" y="319.0" type="line"/>
    </contour>
    <contour>
      <point x="196.0" y="437.0" type="line"/>
      <point x="180.0" y="437.0" type="line"/>
      <point x="180.0" y="295.0" type="line"/>
      <point x="196.0" y="295.0" type="line"/>
    </contour>
    <contour>
      <point x="289.0" y="331.0" type="line"/>
      <point x="282.0" y="315.0" type="line"/>
      <point x="301.0" y="295.0" type="line"/>
      <point x="312.0" y="307.0" type="line"/>
    </contour>
    <contour>
      <point x="310.0" y="310.0" type="line"/>
      <point x="180.0" y="310.0" type="line"/>
      <point x="180.0" y="295.0" type="line"/>
      <point x="310.0" y="295.0" type="line"/>
    </contour>
    <contour>
      <point x="280.0" y="331.0" type="line"/>
      <point x="181.0" y="307.0" type="line"/>
      <point x="192.0" y="295.0" type="line"/>
      <point x="287.0" y="315.0" type="line"/>
    </contour>
    <contour>
      <point x="312.0" y="539.0" type="line"/>
      <point x="296.0" y="539.0" type="line"/>
      <point x="296.0" y="475.0" type="line"/>
      <point x="312.0" y="473.0" type="line"/>
    </contour>
    <contour>
      <point x="302.0" y="485.0" type="line"/>
      <point x="249.0" y="437.0" type="line"/>
      <point x="263.0" y="426.0" type="line"/>
      <point x="312.0" y="473.0" type="line"/>
    </contour>
    <contour>
      <point x="300.0" y="549.0" type="line"/>
      <point x="180.0" y="437.0" type="line"/>
      <point x="191.0" y="425.0" type="line"/>
      <point x="312.0" y="538.0" type="line"/>
      <point x="312.0" y="549.0" type="line"/>
    </contour>
    <contour>
      <point x="162.0" y="437.0" type="line"/>
      <point x="30.0" y="437.0" type="line"/>
      <point x="30.0" y="423.0" type="line"/>
      <point x="162.0" y="423.0" type="line"/>
    </contour>
    <contour>
      <point x="151.0" y="437.0" type="line"/>
      <point x="132.0" y="337.0" type="line"/>
      <point x="140.0" y="321.0" type="line"/>
      <point x="162.0" y="426.0" type="line"/>
    </contour>
    <contour>
      <point x="42.0" y="437.0" type="line"/>
      <point x="30.0" y="426.0" type="line"/>
      <point x="130.0" y="320.0" type="line"/>
      <point x="137.0" y="336.0" type="line"/>
    </contour>
    <contour>
      <point x="162.0" y="437.0" type="line"/>
      <point x="146.0" y="437.0" type="line"/>
      <point x="146.0" y="295.0" type="line"/>
      <point x="162.0" y="295.0" type="line"/>
    </contour>
    <contour>
      <point x="140.0" y="333.0" type="line"/>
      <point x="129.0" y="333.0" type="line"/>
      <point x="129.0" y="319.0" type="line"/>
      <point x="140.0" y="319.0" type="line"/>
    </contour>
    <contour>
      <point x="46.0" y="437.0" type="line"/>
      <point x="30.0" y="437.0" type="line"/>
      <point x="30.0" y="295.0" type="line"/>
      <point x="46.0" y="295.0" type="line"/>
    </contour>
    <contour>
      <point x="139.0" y="331.0" type="line"/>
      <point x="132.0" y="315.0" type="line"/>
      <point x="151.0" y="295.0" type="line"/>
      <point x="162.0" y="307.0" type="line"/>
    </contour>
    <contour>
      <point x="160.0" y="310.0" type="line"/>
      <point x="30.0" y="310.0" type="line"/>
      <point x="30.0" y="295.0" type="line"/>
      <point x="160.0" y="295.0" type="line"/>
    </contour>
    <contour>
      <point x="130.0" y="331.0" type="line"/>
      <point x="31.0" y="307.0" type="line"/>
      <point x="42.0" y="295.0" type="line"/>
      <point x="137.0" y="315.0" type="line"/>
    </contour>
    <contour>
      <point x="162.0" y="539.0" type="line"/>
      <point x="146.0" y="539.0" type="line"/>
      <point x="146.0" y="475.0" type="line"/>
      <point x="162.0" y="473.0" type="line"/>
    </contour>
    <contour>
      <point x="152.0" y="485.0" type="line"/>
      <point x="99.0" y="437.0" type="line"/>
      <point x="113.0" y="426.0" type="line"/>
      <point x="162.0" y="473.0" type="line"/>
    </contour>
    <contour>
      <point x="150.0" y="549.0" type="line"/>
      <point x="30.0" y="437.0" type="line"/>
      <point x="41.0" y="425.0" type="line"/>
      <point x="162.0" y="538.0" type="line"/>
      <point x="162.0" y="549.0" type="line"/>
    </contour>
  </outline>
</glyph>
<glyph name="caroncomb.case" format="2">
  <anchor x="145.0" y="550.0" name="_top"/>
  <anchor x="145.0" y="752.0" name="top"/>
  <outline>
    <contour>
      <point x="25.0" y="653.0" type="line"/>
      <point x="5.0" y="653.0" type="line"/>
      <point x="77.0" y="569.0" type="line"/>
      <point x="97.0" y="569.0" type="line"/>
    </contour>
    <contour>
      <point x="271.0" y="653.0" type="line"/>
      <point x="183.0" y="653.0" type="line"/>
      <point x="183.0" y="638.0" type="line"/>
      <point x="265.0" y="638.0" type="line"/>
    </contour>
    <contour>
      <point x="285.0" y="653.0" type="line"/>
      <point x="265.0" y="653.0" type="line"/>
      <point x="193.0" y="569.0" type="line"/>
      <point x="213.0" y="569.0" type="line"/>
    </contour>
    <contour>
      <point x="260.0" y="645.0" type="line"/>
      <point x="226.0" y="588.0" type="line"/>
      <point x="223.0" y="581.0" type="line"/>
      <point x="264.0" y="634.0" type="line"/>
    </contour>
    <contour>
      <point x="188.0" y="652.0" type="line"/>
      <point x="178.0" y="640.0" type="line"/>
      <point x="224.0" y="580.0" type="line"/>
      <point x="232.0" y="591.0" type="line"/>
    </contour>
    <contour>
      <point x="196.0" y="653.0" type="line"/>
      <point x="176.0" y="653.0" type="line"/>
      <point x="142.0" y="615.0" type="line"/>
      <point x="152.0" y="602.0" type="line"/>
    </contour>
    <contour>
      <point x="145.0" y="622.0" type="line"/>
      <point x="145.0" y="601.0" type="line"/>
      <point x="168.0" y="569.0" type="line"/>
      <point x="177.0" y="581.0" type="line"/>
    </contour>
    <contour>
      <point x="114.0" y="653.0" type="line"/>
      <point x="94.0" y="653.0" type="line"/>
      <point x="145.0" y="597.0" type="line"/>
      <point x="148.0" y="619.0" type="line"/>
    </contour>
    <contour>
      <point x="208.0" y="582.0" type="line"/>
      <point x="142.0" y="582.0" type="line"/>
      <point x="142.0" y="569.0" type="line"/>
      <point x="208.0" y="569.0" type="line"/>
    </contour>
    <contour>
      <point x="154.0" y="582.0" type="line"/>
      <point x="83.0" y="582.0" type="line"/>
      <point x="83.0" y="569.0" type="line"/>
      <point x="154.0" y="569.0" type="line"/>
    </contour>
    <contour>
      <point x="107.0" y="653.0" type="line"/>
      <point x="19.0" y="653.0" type="line"/>
      <point x="25.0" y="638.0" type="line"/>
      <point x="107.0" y="638.0" type="line"/>
    </contour>
    <contour>
      <point x="96.0" y="652.0" type="line"/>
      <point x="105.0" y="592.0" type="line"/>
      <point x="122.0" y="582.0" type="line"/>
      <point x="113.0" y="639.0" type="line"/>
    </contour>
    <contour>
      <point x="227.0" y="581.0" type="line"/>
      <point x="230.0" y="588.0" type="line"/>
      <point x="192.0" y="569.0" type="line"/>
      <point x="211.0" y="569.0" type="line"/>
    </contour>
    <contour>
      <point x="140.0" y="622.0" type="line"/>
      <point x="138.0" y="581.0" type="line"/>
      <point x="148.0" y="569.0" type="line"/>
      <point x="150.0" y="606.0" type="line"/>
    </contour>
    <contour>
      <point x="121.0" y="587.0" type="line"/>
      <point x="119.0" y="574.0" type="line"/>
      <point x="139.0" y="569.0" type="line"/>
      <point x="155.0" y="569.0" type="line"/>
    </contour>
    <contour>
      <point x="30.0" y="645.0" type="line"/>
      <point x="26.0" y="634.0" type="line"/>
      <point x="120.0" y="575.0" type="line"/>
      <point x="121.0" y="590.0" type="line"/>
    </contour>
  </outline>
</glyph>
<glyph name="circumflexcomb.case" format="2">
  <anchor x="145.0" y="550.0" name="_top"/>
  <anchor x="145.0" y="752.0" name="top"/>
  <outline>
    <contour>
      <point x="265.0" y="572.0" type="line"/>
      <point x="285.0" y="572.0" type="line"/>
      <point x="213.0" y="666.0" type="line"/>
      <point x="193.0" y="666.0" type="line"/>
    </contour>
    <contour>
      <point x="19.0" y="572.0" type="line"/>
      <point x="107.0" y="572.0" type="line"/>
      <point x="107.0" y="587.0" type="line"/>
      <point x="25.0" y="587.0" type="line"/>
    </contour>
    <contour>
      <point x="5.0" y="572.0" type="line"/>
      <point x="25.0" y="572.0" type="line"/>
      <point x="97.0" y="666.0" type="line"/>
      <point x="77.0" y="666.0" type="line"/>
    </contour>
    <contour>
      <point x="30.0" y="578.0" type="line"/>
      <point x="99.0" y="597.0" type="line"/>
      <point x="93.0" y="608.0" type="line"/>
      <point x="26.0" y="591.0" type="line"/>
    </contour>
    <contour>
      <point x="102.0" y="573.0" type="line"/>
      <point x="115.0" y="588.0" type="line"/>
      <point x="99.0" y="612.0" type="line"/>
      <point x="86.0" y="603.0" type="line"/>
    </contour>
    <contour>
      <point x="94.0" y="572.0" type="line"/>
      <point x="114.0" y="572.0" type="line"/>
      <point x="148.0" y="615.0" type="line"/>
      <point x="141.0" y="632.0" type="line"/>
    </contour>
    <contour>
      <point x="142.0" y="613.0" type="line"/>
      <point x="148.0" y="634.0" type="line"/>
      <point x="144.0" y="666.0" type="line"/>
      <point x="135.0" y="654.0" type="line"/>
    </contour>
    <contour>
      <point x="176.0" y="572.0" type="line"/>
      <point x="196.0" y="572.0" type="line"/>
      <point x="152.0" y="628.0" type="line"/>
      <point x="142.0" y="616.0" type="line"/>
    </contour>
    <contour>
      <point x="82.0" y="653.0" type="line"/>
      <point x="157.0" y="653.0" type="line"/>
      <point x="157.0" y="666.0" type="line"/>
      <point x="82.0" y="666.0" type="line"/>
    </contour>
    <contour>
      <point x="140.0" y="653.0" type="line"/>
      <point x="207.0" y="653.0" type="line"/>
      <point x="207.0" y="666.0" type="line"/>
      <point x="140.0" y="666.0" type="line"/>
    </contour>
    <contour>
      <point x="183.0" y="572.0" type="line"/>
      <point x="271.0" y="572.0" type="line"/>
      <point x="265.0" y="587.0" type="line"/>
      <point x="183.0" y="587.0" type="line"/>
    </contour>
    <contour>
      <point x="188.0" y="573.0" type="line"/>
      <point x="262.0" y="596.0" type="line"/>
      <point x="245.0" y="604.0" type="line"/>
      <point x="179.0" y="586.0" type="line"/>
    </contour>
    <contour>
      <point x="86.0" y="602.0" type="line"/>
      <point x="103.0" y="601.0" type="line"/>
      <point x="156.0" y="666.0" type="line"/>
      <point x="138.0" y="666.0" type="line"/>
    </contour>
    <contour>
      <point x="145.0" y="613.0" type="line"/>
      <point x="178.0" y="654.0" type="line"/>
      <point x="170.0" y="666.0" type="line"/>
      <point x="145.0" y="634.0" type="line"/>
    </contour>
    <contour>
      <point x="248.0" y="593.0" type="line"/>
      <point x="260.0" y="594.0" type="line"/>
      <point x="208.0" y="666.0" type="line"/>
      <point x="192.0" y="666.0" type="line"/>
    </contour>
    <contour>
      <point x="260.0" y="580.0" type="line"/>
      <point x="264.0" y="591.0" type="line"/>
      <point x="249.0" y="599.0" type="line"/>
      <point x="247.0" y="592.0" type="line"/>
    </contour>
  </outline>
</glyph>
<glyph name="diagonals" format="2">
  <advance width="170.0"/>
  <outline>
    <contour>
      <point x="137.0" y="0.0" type="line"/>
      <point x="150.0" y="13.0" type="line"/>
      <point x="33.0" y="130.0" type="line"/>
      <point x="20.0" y="117.0" type="line"/>
    </contour>
  </outline>
</glyph>
<glyph name="dieresiscomb.case" format="2">
  <anchor x="161.0" y="550.0" name="_top"/>
  <anchor x="161.0" y="720.0" name="top"/>
  <outline>
    <contour>
      <point x="181.0" y="566.0" type="line"/>
      <point x="315.0" y="566.0" type="line"/>
      <point x="315.0" y="581.0" type="line"/>
      <point x="181.0" y="581.0" type="line"/>
    </contour>
    <contour>
      <point x="194.0" y="569.0" type="line"/>
      <point x="290.0" y="586.0" type="line"/>
      <point x="282.0" y="600.0" type="line"/>
      <point x="183.0" y="580.0" type="line"/>
    </contour>
    <contour>
      <point x="179.0" y="566.0" type="line"/>
      <point x="195.0" y="566.0" type="line"/>
      <point x="195.0" y="654.0" type="line"/>
      <point x="179.0" y="654.0" type="line"/>
    </contour>
    <contour>
      <point x="280.0" y="587.0" type="line"/>
      <point x="296.0" y="587.0" type="line"/>
      <point x="296.0" y="603.0" type="line"/>
      <point x="280.0" y="603.0" type="line"/>
    </contour>
    <contour>
      <point x="301.0" y="566.0" type="line"/>
      <point x="317.0" y="566.0" type="line"/>
      <point x="317.0" y="654.0" type="line"/>
      <point x="301.0" y="654.0" type="line"/>
    </contour>
    <contour>
      <point x="185.0" y="639.0" type="line"/>
      <point x="315.0" y="639.0" type="line"/>
      <point x="315.0" y="654.0" type="line"/>
      <point x="185.0" y="654.0" type="line"/>
    </contour>
    <contour>
      <point x="194.0" y="651.0" type="line"/>
      <point x="183.0" y="640.0" type="line"/>
      <point x="282.0" y="590.0" type="line"/>
      <point x="290.0" y="604.0" type="line"/>
    </contour>
    <contour>
      <point x="302.0" y="569.0" type="line"/>
      <point x="313.0" y="580.0" type="line"/>
      <point x="294.0" y="600.0" type="line"/>
      <point x="286.0" y="586.0" type="line"/>
    </contour>
    <contour>
      <point x="302.0" y="651.0" type="line"/>
      <point x="286.0" y="604.0" type="line"/>
      <point x="294.0" y="590.0" type="line"/>
      <point x="313.0" y="640.0" type="line"/>
    </contour>
    <contour>
      <point x="7.0" y="566.0" type="line"/>
      <point x="141.0" y="566.0" type="line"/>
      <point x="141.0" y="581.0" type="line"/>
      <point x="7.0" y="581.0" type="line"/>
    </contour>
    <contour>
      <point x="20.0" y="569.0" type="line"/>
      <point x="116.0" y="586.0" type="line"/>
      <point x="108.0" y="600.0" type="line"/>
      <point x="9.0" y="580.0" type="line"/>
    </contour>
    <contour>
      <point x="5.0" y="566.0" type="line"/>
      <point x="21.0" y="566.0" type="line"/>
      <point x="21.0" y="654.0" type="line"/>
      <point x="5.0" y="654.0" type="line"/>
    </contour>
    <contour>
      <point x="106.0" y="587.0" type="line"/>
      <point x="122.0" y="587.0" type="line"/>
      <point x="122.0" y="603.0" type="line"/>
      <point x="106.0" y="603.0" type="line"/>
    </contour>
    <contour>
      <point x="127.0" y="566.0" type="line"/>
      <point x="143.0" y="566.0" type="line"/>
      <point x="143.0" y="654.0" type="line"/>
      <point x="127.0" y="654.0" type="line"/>
    </contour>
    <contour>
      <point x="11.0" y="639.0" type="line"/>
      <point x="141.0" y="639.0" type="line"/>
      <point x="141.0" y="654.0" type="line"/>
      <point x="11.0" y="654.0" type="line"/>
    </contour>
    <contour>
      <point x="20.0" y="651.0" type="line"/>
      <point x="9.0" y="640.0" type="line"/>
      <point x="108.0" y="590.0" type="line"/>
      <point x="116.0" y="604.0" type="line"/>
    </contour>
    <contour>
      <point x="128.0" y="569.0" type="line"/>
      <point x="139.0" y="580.0" type="line"/>
      <point x="120.0" y="600.0" type="line"/>
      <point x="112.0" y="586.0" type="line"/>
    </contour>
    <contour>
      <point x="128.0" y="651.0" type="line"/>
      <point x="112.0" y="604.0" type="line"/>
      <point x="120.0" y="590.0" type="line"/>
      <point x="139.0" y="640.0" type="line"/>
    </contour>
  </outline>
</glyph>
<glyph name="dotaccentcomb.case" format="2">
  <anchor x="54.0" y="550.0" name="_top"/>
  <anchor x="54.0" y="720.0" name="top"/>
  <outline>
    <contour>
      <point x="7.0" y="566.0" type="line"/>
      <point x="101.0" y="566.0" type="line"/>
      <point x="101.0" y="581.0" type="line"/>
      <point x="7.0" y="581.0" type="line"/>
    </contour>
    <contour>
      <point x="20.0" y="569.0" type="line"/>
      <point x="76.0" y="586.0" type="line"/>
      <point x="68.0" y="600.0" type="line"/>
      <point x="9.0" y="580.0" type="line"/>
    </contour>
    <contour>
      <point x="5.0" y="566.0" type="line"/>
      <point x="21.0" y="566.0" type="line"/>
      <point x="21.0" y="654.0" type="line"/>
      <point x="5.0" y="654.0" type="line"/>
    </contour>
    <contour>
      <point x="66.0" y="587.0" type="line"/>
      <point x="82.0" y="587.0" type="line"/>
      <point x="82.0" y="603.0" type="line"/>
      <point x="66.0" y="603.0" type="line"/>
    </contour>
    <contour>
      <point x="87.0" y="566.0" type="line"/>
      <point x="103.0" y="566.0" type="line"/>
      <point x="103.0" y="654.0" type="line"/>
      <point x="87.0" y="654.0" type="line"/>
    </contour>
    <contour>
      <point x="11.0" y="639.0" type="line"/>
      <point x="101.0" y="639.0" type="line"/>
      <point x="101.0" y="654.0" type="line"/>
      <point x="11.0" y="654.0" type="line"/>
    </contour>
    <contour>
      <point x="20.0" y="651.0" type="line"/>
      <point x="9.0" y="640.0" type="line"/>
      <point x="68.0" y="590.0" type="line"/>
      <point x="76.0" y="604.0" type="line"/>
    </contour>
    <contour>
      <point x="88.0" y="569.0" type="line"/>
      <point x="99.0" y="580.0" type="line"/>
      <point x="80.0" y="600.0" type="line"/>
      <point x="72.0" y="586.0" type="line"/>
    </contour>
    <contour>
      <point x="88.0" y="651.0" type="line"/>
      <point x="72.0" y="604.0" type="line"/>
      <point x="80.0" y="590.0" type="line"/>
      <point x="99.0" y="640.0" type="line"/>
    </contour>
  </outline>
</glyph>
<glyph name="horizontals" format="2">
  <advance width="280.0"/>
  <outline>
    <contour>
      <point x="20.0" y="0.0" type="line"/>
      <point x="260.0" y="0.0" type="line"/>
      <point x="260.0" y="20.0" type="line"/>
      <point x="20.0" y="20.0" type="line"/>
    </contour>
  </outline>
</glyph>
<glyph name="ogonekcomb.case" format="2">
  <anchor x="88.0" y="18.0" name="_ogonek"/>
  <outline>
    <contour>
      <point x="19.0" y="-92.0" type="line"/>
      <point x="78.0" y="18.0" type="line"/>
      <point x="58.0" y="18.0" type="line"/>
      <point x="5.0" y="-80.0" type="line"/>
    </contour>
    <contour>
      <point x="32.0" y="-106.0" type="line"/>
      <point x="55.0" y="-93.0" type="line"/>
      <point x="19.0" y="-86.0" type="line"/>
      <point x="5.0" y="-101.0" type="line"/>
    </contour>
    <contour>
      <point x="32.0" y="-106.0" type="line"/>
      <point x="114.0" y="-106.0" type="line"/>
      <point x="114.0" y="-87.0" type="line"/>
      <point x="47.0" y="-87.0" type="line"/>
    </contour>
    <contour>
      <point x="5.0" y="-101.0" type="line"/>
      <point x="104.0" y="-101.0" type="line"/>
      <point x="104.0" y="-80.0" type="line"/>
      <point x="5.0" y="-80.0" type="line"/>
    </contour>
    <contour>
      <point x="101.0" y="-97.0" type="line"/>
      <point x="110.0" y="-93.0" type="line"/>
      <point x="104.0" y="-81.0" type="line"/>
      <point x="101.0" y="-95.0" type="line"/>
    </contour>
    <contour>
      <point x="26.0" y="-91.0" type="line"/>
      <point x="80.0" y="-33.0" type="line"/>
      <point x="71.0" y="-19.0" type="line"/>
      <point x="19.0" y="-74.0" type="line"/>
    </contour>
    <contour>
      <point x="104.0" y="-99.0" type="line"/>
      <point x="108.0" y="-37.0" type="line"/>
      <point x="94.0" y="-34.0" type="line"/>
      <point x="91.0" y="-86.0" type="line"/>
    </contour>
    <contour>
      <point x="97.0" y="-106.0" type="line"/>
      <point x="114.0" y="-106.0" type="line"/>
      <point x="114.0" y="-26.0" type="line"/>
      <point x="97.0" y="-26.0" type="line"/>
    </contour>
    <contour>
      <point x="64.0" y="-41.0" type="line"/>
      <point x="114.0" y="-41.0" type="line"/>
      <point x="114.0" y="-26.0" type="line"/>
      <point x="78.0" y="-26.0" type="line"/>
    </contour>
    <contour>
      <point x="62.0" y="-33.0" type="line"/>
      <point x="80.0" y="-33.0" type="line"/>
      <point x="103.0" y="18.0" type="line"/>
      <point x="85.0" y="18.0" type="line"/>
    </contour>
    <contour>
      <point x="59.0" y="0.0" type="line"/>
      <point x="94.0" y="0.0" type="line"/>
      <point x="94.0" y="18.0" type="line"/>
      <point x="59.0" y="18.0" type="line"/>
    </contour>
  </outline>
</glyph>
<glyph name="ringcomb.case" format="2">
  <anchor x="85.0" y="550.0" name="_top"/>
  <anchor x="85.0" y="665.0" name="top"/>
  <outline>
    <contour>
      <point x="156.0" y="618.0" type="line"/>
      <point x="165.0" y="628.0" type="line"/>
      <point x="130.0" y="665.0" type="line"/>
      <point x="121.0" y="655.0" type="line"/>
    </contour>
    <contour>
      <point x="50.0" y="568.0" type="line"/>
      <point x="59.0" y="578.0" type="line"/>
      <point x="14.0" y="604.0" type="line"/>
      <point x="5.0" y="594.0" type="line"/>
    </contour>
    <contour>
      <point x="5.0" y="594.0" type="line"/>
      <point x="19.0" y="594.0" type="line"/>
      <point x="19.0" y="629.0" type="line"/>
      <point x="5.0" y="629.0" type="line"/>
    </contour>
    <contour>
      <point x="17.0" y="590.0" type="line"/>
      <point x="74.0" y="596.0" type="line"/>
      <point x="69.0" y="607.0" type="line"/>
      <point x="9.0" y="600.0" type="line"/>
    </contour>
    <contour>
      <point x="59.0" y="571.0" type="line"/>
      <point x="121.0" y="583.0" type="line"/>
      <point x="112.0" y="591.0" type="line"/>
      <point x="49.0" y="579.0" type="line"/>
    </contour>
    <contour>
      <point x="69.0" y="596.0" type="line"/>
      <point x="74.0" y="606.0" type="line"/>
      <point x="17.0" y="632.0" type="line"/>
      <point x="9.0" y="622.0" type="line"/>
    </contour>
    <contour>
      <point x="50.0" y="568.0" type="line"/>
      <point x="130.0" y="568.0" type="line"/>
      <point x="130.0" y="581.0" type="line"/>
      <point x="50.0" y="581.0" type="line"/>
    </contour>
    <contour>
      <point x="112.0" y="580.0" type="line"/>
      <point x="120.0" y="588.0" type="line"/>
      <point x="73.0" y="607.0" type="line"/>
      <point x="65.0" y="599.0" type="line"/>
    </contour>
    <contour>
      <point x="14.0" y="619.0" type="line"/>
      <point x="59.0" y="655.0" type="line"/>
      <point x="50.0" y="665.0" type="line"/>
      <point x="5.0" y="629.0" type="line"/>
    </contour>
    <contour>
      <point x="121.0" y="571.0" type="line"/>
      <point x="131.0" y="579.0" type="line"/>
      <point x="118.0" y="591.0" type="line"/>
      <point x="109.0" y="583.0" type="line"/>
    </contour>
    <contour>
      <point x="74.0" y="596.0" type="line"/>
      <point x="120.0" y="624.0" type="line"/>
      <point x="110.0" y="632.0" type="line"/>
      <point x="65.0" y="604.0" type="line"/>
    </contour>
    <contour>
      <point x="118.0" y="580.0" type="line"/>
      <point x="145.0" y="599.0" type="line"/>
      <point x="137.0" y="607.0" type="line"/>
      <point x="110.0" y="588.0" type="line"/>
    </contour>
    <contour>
      <point x="112.0" y="622.0" type="line"/>
      <point x="121.0" y="630.0" type="line"/>
      <point x="59.0" y="662.0" type="line"/>
      <point x="49.0" y="654.0" type="line"/>
    </contour>
    <contour>
      <point x="130.0" y="568.0" type="line"/>
      <point x="165.0" y="593.0" type="line"/>
      <point x="156.0" y="603.0" type="line"/>
      <point x="121.0" y="578.0" type="line"/>
    </contour>
    <contour>
      <point x="136.0" y="596.0" type="line"/>
      <point x="145.0" y="604.0" type="line"/>
      <point x="120.0" y="632.0" type="line"/>
      <point x="110.0" y="624.0" type="line"/>
    </contour>
    <contour>
      <point x="50.0" y="652.0" type="line"/>
      <point x="130.0" y="652.0" type="line"/>
      <point x="130.0" y="665.0" type="line"/>
      <point x="50.0" y="665.0" type="line"/>
    </contour>
    <contour>
      <point x="154.0" y="590.0" type="line"/>
      <point x="162.0" y="600.0" type="line"/>
      <point x="136.0" y="607.0" type="line"/>
      <point x="131.0" y="596.0" type="line"/>
    </contour>
    <contour>
      <point x="118.0" y="622.0" type="line"/>
      <point x="131.0" y="654.0" type="line"/>
      <point x="121.0" y="662.0" type="line"/>
      <point x="109.0" y="630.0" type="line"/>
    </contour>
    <contour>
      <point x="136.0" y="595.0" type="line"/>
      <point x="162.0" y="622.0" type="line"/>
      <point x="154.0" y="632.0" type="line"/>
      <point x="131.0" y="605.0" type="line"/>
    </contour>
    <contour>
      <point x="151.0" y="593.0" type="line"/>
      <point x="165.0" y="593.0" type="line"/>
      <point x="165.0" y="628.0" type="line"/>
      <point x="151.0" y="628.0" type="line"/>
    </contour>
  </outline>
</glyph>
